<?xml version="1.0" encoding="UTF-8"?>
<svg xmlns="http://www.w3.org/2000/svg" width="1040" height="720" viewBox="0 0 520 360" role="img" aria-labelledby="title desc">
  <title id="title">拆箱戏癫</title>
  <desc id="desc">Low-poly sticker persona scene: 拆箱戏癫.</desc>
  <rect width="520" height="360" rx="28" fill="#ffffff"/>
  <rect x="18" y="18" width="484" height="324" rx="24" fill="#fdf4e3" opacity=".32"/>
  <path d="M33 72 H492 M33 118 H492 M33 164 H492 M33 210 H492 M33 256 H492 M78 30 V332 M142 30 V332 M206 30 V332 M270 30 V332 M334 30 V332 M398 30 V332 M462 30 V332" stroke="#eadbcf" stroke-width="1" opacity=".4"/>
  <circle cx="83" cy="78" r="58" fill="#fae2db" opacity=".22"/>
  <circle cx="435" cy="281" r="62" fill="#eadbcf" opacity=".18"/>
  <path d="M25 34 H160 V326 H25 Z M360 34 H495 V326 H360 Z" fill="#945e30" opacity=".9"/><path d="M160 34 C195 87 190 279 160 326 M360 34 C325 87 330 279 360 326" fill="#af7747" opacity=".8"/><ellipse cx="260" cy="288" rx="150" ry="29" fill="#e8795b" opacity=".36"/><g transform="translate(260 115) scale(0.74)" ><polygon points="0,-56 14,-19 52,-36 30,-4 58,17 22,17 14,56 -5,25 -39,43 -23,8 -58,-4 -22,-16" fill="#f0b94f" transform="rotate(0)"/></g><g transform="translate(260 236) scale(1.34)" ><polygon points="-34,-12 0,-30 36,-12 0,8" fill="#be9069" /><polygon points="-34,-12 0,8 0,45 -34,25" fill="#a86b37" /><polygon points="36,-12 0,8 0,45 36,25" fill="#80512a" /><path d="M0 8 V45" stroke="#6d4624" stroke-width="3" opacity=".35"/><circle cx="-12" cy="-5" r="4" fill="#e8795b" opacity=".7"/></g><g transform="translate(96 239) scale(0.48)" >
      <ellipse cx="0" cy="87" rx="72" ry="13" fill="#17201d" opacity=".16"/>
      <polygon points="-39,8 39,8 57,70 -57,70" fill="#a86b37" />
      <polygon points="-39,8 0,24 -57,70" fill="#b58155" opacity=".8"/>
      <polygon points="39,8 0,24 57,70" fill="#905c2f" opacity=".76"/>
      <path d="M-40 19 L-82 44 M40 18 L82 44" stroke="#af7747" stroke-width="17" stroke-linecap="round"/>
      <circle cx="-86" cy="46" r="10" fill="#efd0b9"/><circle cx="86" cy="46" r="10" fill="#efd0b9"/>
      <g transform="translate(0 -64)">
        <polygon points="-53,-30 -14,-61 39,-55 63,-16 51,38 0,56 -48,33" fill="#efd0b9" />
        <polygon points="-53,-30 -14,-61 -8,0 -48,33" fill="#f1d5c0" opacity=".8"/>
        <polygon points="39,-55 63,-16 51,38 7,-1" fill="#d2b7a3" opacity=".62"/>
        <polygon points="-60,-25 -39,-72 -12,-45 11,-75 31,-43 63,-34 45,-6 -11,-30" fill="#1f2428" />
        <path d="M-26 -14 L-7 -18 M7 -18 L27 -14" stroke="#2d2520" stroke-width="5" stroke-linecap="round"/>
        <circle cx="-18" cy="0" r="4.5" fill="#2d2520"/><circle cx="19" cy="0" r="4.5" fill="#2d2520"/>
        <polygon points="0,0 -8,14 8,13" fill="#dcbfaa" opacity=".75"/>
        <path d="M-18 23 Q0 9 18 23" fill="none" stroke="#854e4a" stroke-width="5" stroke-linecap="round"/>
      </g>
      <circle cx="-41" cy="9" r="5" fill="#f0b94f" opacity=".72"/><circle cx="40" cy="9" r="5" fill="#e8795b" opacity=".72"/>
    </g><g transform="translate(425 239) scale(0.48)" >
      <ellipse cx="0" cy="87" rx="72" ry="13" fill="#17201d" opacity=".16"/>
      <polygon points="-39,8 39,8 57,70 -57,70" fill="#a86b37" />
      <polygon points="-39,8 0,24 -57,70" fill="#b58155" opacity=".8"/>
      <polygon points="39,8 0,24 57,70" fill="#905c2f" opacity=".76"/>
      <path d="M-40 19 L-82 44 M40 18 L82 44" stroke="#af7747" stroke-width="17" stroke-linecap="round"/>
      <circle cx="-86" cy="46" r="10" fill="#efd0b9"/><circle cx="86" cy="46" r="10" fill="#efd0b9"/>
      <g transform="translate(0 -64)">
        <polygon points="-53,-30 -14,-61 39,-55 63,-16 51,38 0,56 -48,33" fill="#efd0b9" />
        <polygon points="-53,-30 -14,-61 -8,0 -48,33" fill="#f1d5c0" opacity=".8"/>
        <polygon points="39,-55 63,-16 51,38 7,-1" fill="#d2b7a3" opacity=".62"/>
        <polygon points="-56,-28 -20,-72 32,-67 68,-34 57,-7 -9,-37" fill="#1e2227" /><polygon points="-20,-72 33,-67 65,-34 1,-43" fill="#53565a" />
        <path d="M-26 -14 L-7 -18 M7 -18 L27 -14" stroke="#2d2520" stroke-width="5" stroke-linecap="round"/>
        <circle cx="-18" cy="0" r="4.5" fill="#2d2520"/><circle cx="19" cy="0" r="4.5" fill="#2d2520"/>
        <polygon points="0,0 -8,14 8,13" fill="#dcbfaa" opacity=".75"/>
        <path d="M-18 23 Q0 9 18 23" fill="none" stroke="#854e4a" stroke-width="5" stroke-linecap="round"/>
      </g>
      <circle cx="-41" cy="9" r="5" fill="#f0b94f" opacity=".72"/><circle cx="40" cy="9" r="5" fill="#e8795b" opacity=".72"/>
    </g>
  
    <g transform="translate(33 42)">
      <rect x="0" y="-20" width="205" height="36" rx="18" fill="#ffffff" opacity=".92"/>
      <text x="16" y="2" font-family="Arial, Helvetica, sans-serif" font-size="16" font-weight="900" fill="#26302c" >Try-Box-Dian</text>
    </g>
  
</svg>
