<?xml version="1.0" encoding="UTF-8"?>
<svg xmlns="http://www.w3.org/2000/svg" width="1040" height="720" viewBox="0 0 520 360" role="img" aria-labelledby="title desc">
  <title id="title">盘货暴君</title>
  <desc id="desc">Low-poly sticker persona scene: 盘货暴君.</desc>
  <rect width="520" height="360" rx="28" fill="#ffffff"/>
  <rect x="18" y="18" width="484" height="324" rx="24" fill="#f8f5e7" opacity=".32"/>
  <path d="M33 72 H492 M33 118 H492 M33 164 H492 M33 210 H492 M33 256 H492 M78 30 V332 M142 30 V332 M206 30 V332 M270 30 V332 M334 30 V332 M398 30 V332 M462 30 V332" stroke="#d1d9d4" stroke-width="1" opacity=".4"/>
  <circle cx="83" cy="78" r="58" fill="#e6f1e0" opacity=".22"/>
  <circle cx="435" cy="281" r="62" fill="#d1d9d4" opacity=".18"/>
  
    <path d="M54 294 C136 333 386 335 466 292" fill="none" stroke="#e9eee6" stroke-width="18" stroke-linecap="round" opacity=".78"/>
    <rect x="58" y="302" width="118" height="18" rx="11" fill="#ede4be" stroke="#beb698" stroke-width="3" transform="rotate(-2 117 311)"/>
    <rect x="340" y="58" width="110" height="16" rx="11" fill="#90a297" stroke="#738279" stroke-width="3" transform="rotate(1 395 66)"/>
  <path d="M194 92 H326 L348 285 H172 Z" fill="#3b5745"/><path d="M200 106 H320 V254 H200 Z" fill="#627c6b"/><path d="M196 78 L214 108 H306 L324 78 L315 122 H205 Z" fill="#8fbf73"/><g transform="translate(99 235) scale(0.7)" ><polygon points="-34,-12 0,-30 36,-12 0,8" fill="#708778" /><polygon points="-34,-12 0,8 0,45 -34,25" fill="#405f4b" /><polygon points="36,-12 0,8 0,45 36,25" fill="#314839" /><path d="M0 8 V45" stroke="#2a3e31" stroke-width="3" opacity=".35"/><circle cx="-12" cy="-5" r="4" fill="#d6c26b" opacity=".7"/></g><g transform="translate(421 235) scale(0.7)" ><polygon points="-34,-12 0,-30 36,-12 0,8" fill="#889b8f" /><polygon points="-34,-12 0,8 0,45 -34,25" fill="#607a6a" /><polygon points="36,-12 0,8 0,45 36,25" fill="#495d51" /><path d="M0 8 V45" stroke="#3e4f45" stroke-width="3" opacity=".35"/><circle cx="-12" cy="-5" r="4" fill="#8fbf73" opacity=".7"/></g><g transform="translate(103 119) scale(0.53)" ><polygon points="-34,-12 0,-30 36,-12 0,8" fill="#94a59a" /><polygon points="-34,-12 0,8 0,45 -34,25" fill="#708778" /><polygon points="36,-12 0,8 0,45 36,25" fill="#55675b" /><path d="M0 8 V45" stroke="#49584e" stroke-width="3" opacity=".35"/><circle cx="-12" cy="-5" r="4" fill="#8fbf73" opacity=".7"/></g><g transform="translate(420 118) scale(0.53)" ><polygon points="-34,-12 0,-30 36,-12 0,8" fill="#708778" /><polygon points="-34,-12 0,8 0,45 -34,25" fill="#405f4b" /><polygon points="36,-12 0,8 0,45 36,25" fill="#314839" /><path d="M0 8 V45" stroke="#2a3e31" stroke-width="3" opacity=".35"/><circle cx="-12" cy="-5" r="4" fill="#d6c26b" opacity=".7"/></g><g transform="translate(260 236) scale(0.66)" >
      <ellipse cx="0" cy="87" rx="72" ry="13" fill="#17201d" opacity=".16"/>
      <polygon points="-39,8 39,8 57,70 -57,70" fill="#405f4b" />
      <polygon points="-39,8 0,24 -57,70" fill="#5d7766" opacity=".8"/>
      <polygon points="39,8 0,24 57,70" fill="#375241" opacity=".76"/>
      <path d="M-40 19 L-82 44 M40 18 L82 44" stroke="#4f6c59" stroke-width="17" stroke-linecap="round"/>
      <circle cx="-86" cy="46" r="10" fill="#efd0b9"/><circle cx="86" cy="46" r="10" fill="#efd0b9"/>
      <g transform="translate(0 -64)">
        <polygon points="-53,-30 -14,-61 39,-55 63,-16 51,38 0,56 -48,33" fill="#efd0b9" />
        <polygon points="-53,-30 -14,-61 -8,0 -48,33" fill="#f1d5c0" opacity=".8"/>
        <polygon points="39,-55 63,-16 51,38 7,-1" fill="#d2b7a3" opacity=".62"/>
        <polygon points="-55,-30 -19,-64 38,-59 64,-22 50,-2 -8,-30" fill="#1f2428" /><polygon points="-31,-82 -16,-58 0,-82 14,-58 31,-82 25,-50 -26,-50" fill="#8fbf73" />
        <path d="M-26 -14 L-7 -18 M7 -18 L27 -14" stroke="#2d2520" stroke-width="5" stroke-linecap="round"/>
        <circle cx="-18" cy="0" r="4.5" fill="#2d2520"/><circle cx="19" cy="0" r="4.5" fill="#2d2520"/>
        <polygon points="0,0 -8,14 8,13" fill="#dcbfaa" opacity=".75"/>
        <path d="M-18 23 Q0 9 18 23" fill="none" stroke="#854e4a" stroke-width="5" stroke-linecap="round"/>
      </g>
      <circle cx="-41" cy="9" r="5" fill="#d6c26b" opacity=".72"/><circle cx="40" cy="9" r="5" fill="#8fbf73" opacity=".72"/>
    </g>
  
    <g transform="translate(33 42)">
      <rect x="0" y="-20" width="205" height="36" rx="18" fill="#ffffff" opacity=".92"/>
      <text x="16" y="2" font-family="Arial, Helvetica, sans-serif" font-size="16" font-weight="900" fill="#26302c" >Stock-Pan-Boss</text>
    </g>
  
</svg>
