<?xml version="1.0" encoding="UTF-8"?>
<svg xmlns="http://www.w3.org/2000/svg" width="1040" height="720" viewBox="0 0 520 360" role="img" aria-labelledby="title desc">
  <title id="title">断货疯批</title>
  <desc id="desc">Distinct low-poly sticker persona scene for 断货疯批.</desc>
  <rect width="520" height="360" rx="28" fill="#ffffff"/>
  <rect x="18" y="18" width="484" height="324" rx="24" fill="#fadbd9" opacity=".2"/>
  <path d="M54 294 C136 333 386 335 466 292" fill="none" stroke="#e9eee6" stroke-width="18" stroke-linecap="round" opacity=".78"/>
  <rect x="54" y="70" width="150" height="58" rx="12" fill="#fff" stroke="#844032" stroke-width="4"/><text x="72" y="106" font-family="Arial" font-size="24" font-weight="900" fill="#e64b3f">SOLD OUT</text><g transform="translate(405 112) scale(0.7)"><polygon points="0,-54 13,-20 49,-35 29,-4 56,17 21,17 14,54 -5,24 -36,42 -22,8 -56,-4 -20,-15" fill="#e64b3f" /></g><g transform="translate(112 252) scale(0.62)"><path d="M-40 -18 H10 L40 12 L12 40 L-40 -12 Z" fill="#e64b3f"/><circle cx="-24" cy="-7" r="6" fill="#fff8e8"/><path d="M-2 6 H18" stroke="#884234" stroke-width="5" stroke-linecap="round"/></g>
  
    <g transform="translate(285 245) scale(0.95)">
      <ellipse cx="0" cy="92" rx="78" ry="14" fill="#17201d" opacity=".14"/>
      
        <polygon points="-28,50 -52,91 -32,91 -10,53" fill="#8c4335" />
        <polygon points="28,50 52,91 32,91 10,53" fill="#9f4c3c" />
        <rect x="-58" y="88" width="36" height="9" rx="4" fill="#1e2221"/>
        <rect x="23" y="88" width="36" height="9" rx="4" fill="#1e2221"/>
      
      
        <path d="M-38 8 L-63 -19 L-88 -46" fill="none" stroke="#c26857" stroke-width="18" stroke-linecap="round" stroke-linejoin="round"/>
        <circle cx="-63" cy="-19" r="4" fill="#e64b3f" opacity=".58"/>
        <circle cx="-88" cy="-46" r="10" fill="#efd3bc"/>
        <circle cx="-88" cy="-46" r="5" fill="#dcc2ad" opacity=".35"/>
      
        <path d="M38 8 L63 -19 L88 -46" fill="none" stroke="#c26857" stroke-width="18" stroke-linecap="round" stroke-linejoin="round"/>
        <circle cx="63" cy="-19" r="4" fill="#e64b3f" opacity=".58"/>
        <circle cx="88" cy="-46" r="10" fill="#efd3bc"/>
        <circle cx="88" cy="-46" r="5" fill="#dcc2ad" opacity=".35"/>
      
      <polygon points="-47,-10 47,-10 63,62 -63,62" fill="#bd5b48" />
      <polygon points="-47,-10 0,7 -63,62" fill="#c67262" opacity=".78"/>
      <polygon points="47,-10 0,7 63,62" fill="#a6503f" opacity=".72"/>
      <polygon points="-17,-25 17,-25 15,-8 -15,-8" fill="#d8b298"/>
      <g transform="translate(0 -74) scale(1.05)">
        <polygon points="-54,-30 -17,-65 38,-58 66,-19 52,38 0,56 -50,34" fill="#efd3bc" />
        <polygon points="-54,-30 -17,-65 -7,-4 -50,34" fill="#f6dfcd" opacity=".76"/>
        <polygon points="-17,-65 38,-58 8,-2 -7,-4" fill="#f1d7c3" />
        <polygon points="38,-58 66,-19 52,38 8,-2" fill="#d8b298" opacity=".58"/>
        <polygon points="-50,34 -7,-4 0,56" fill="#e3c8b3" opacity=".62"/>
        <polygon points="8,-2 52,38 0,56" fill="#f0d5bf" opacity=".62"/>
        <polygon points="-58,-20 -17,-70 35,-65 64,-34 46,-16 -7,-35" fill="#24282b" />
        <polygon points="-17,-70 35,-65 51,-35 0,-44" fill="#505355" />
        <polygon points="46,-16 69,-8 64,-34 38,-25" fill="#1d2022" />
        <polygon points="-58,-20 -70,6 -50,0 -40,-39" fill="#1d2022" />
        
    <path d="M-29 -24 L-8 -12 M8 -12 L29 -24" stroke="#2d2520" stroke-width="5" stroke-linecap="round"/>
    <circle cx="-18" cy="-1" r="6" fill="#2d2520"/>
    <circle cx="19" cy="-1" r="6" fill="#2d2520"/>
    <polygon points="0,0 -8,14 8,13" fill="#dcc2ad" opacity=".75"/>
    <path d="M-18 24 Q0 5 19 24" fill="none" stroke="#854e4a" stroke-width="5" stroke-linecap="round"/>
    <path d="M31 1 C41 14 39 27 28 29 C20 24 23 11 31 1 Z" fill="#f0938c"/>
  
      </g>
    </g>
  
  
    <g transform="translate(34 42)">
      <rect x="0" y="-20" width="184" height="36" rx="18" fill="#ffffff" opacity=".9"/>
      <text x="16" y="2" font-family="Arial, Helvetica, sans-serif" font-size="16" font-weight="800" fill="#26302c">Soldout-Feng-Pi</text>
    </g>
  
</svg>
