<?xml version="1.0" encoding="UTF-8"?>
<svg xmlns="http://www.w3.org/2000/svg" width="1040" height="720" viewBox="0 0 520 360" role="img" aria-labelledby="title desc">
  <title id="title">库存尸</title>
  <desc id="desc">Low-poly sticker persona scene: 库存尸.</desc>
  <rect width="520" height="360" rx="28" fill="#ffffff"/>
  <rect x="18" y="18" width="484" height="324" rx="24" fill="#ecf3e9" opacity=".32"/>
  <path d="M33 72 H492 M33 118 H492 M33 164 H492 M33 210 H492 M33 256 H492 M78 30 V332 M142 30 V332 M206 30 V332 M270 30 V332 M334 30 V332 M398 30 V332 M462 30 V332" stroke="#e0dbd4" stroke-width="1" opacity=".4"/>
  <circle cx="83" cy="78" r="58" fill="#fff6df" opacity=".22"/>
  <circle cx="435" cy="281" r="62" fill="#e0dbd4" opacity=".18"/>
  
    <path d="M54 294 C136 333 386 335 466 292" fill="none" stroke="#e9eee6" stroke-width="18" stroke-linecap="round" opacity=".78"/>
    <rect x="58" y="302" width="118" height="18" rx="11" fill="#ccddc2" stroke="#a3b19b" stroke-width="3" transform="rotate(-2 117 311)"/>
    <rect x="340" y="58" width="110" height="16" rx="11" fill="#b3a798" stroke="#8f867a" stroke-width="3" transform="rotate(1 395 66)"/>
  <g transform="translate(104 130) scale(0.85)" ><polygon points="-34,-12 0,-30 36,-12 0,8" fill="#9d8e7a" /><polygon points="-34,-12 0,8 0,45 -34,25" fill="#7c684d" /><polygon points="36,-12 0,8 0,45 36,25" fill="#5e4f3b" /><path d="M0 8 V45" stroke="#514432" stroke-width="3" opacity=".35"/><circle cx="-12" cy="-5" r="4" fill="#ffd56f" opacity=".7"/></g><g transform="translate(182 130) scale(0.58)" ><polygon points="-34,-12 0,-30 36,-12 0,8" fill="#afa292" /><polygon points="-34,-12 0,8 0,45 -34,25" fill="#94836d" /><polygon points="36,-12 0,8 0,45 36,25" fill="#706453" /><path d="M0 8 V45" stroke="#605547" stroke-width="3" opacity=".35"/><circle cx="-12" cy="-5" r="4" fill="#8bb174" opacity=".7"/></g><g transform="translate(404 124) scale(0.78)" ><polygon points="-34,-12 0,-30 36,-12 0,8" fill="#9d8e7a" /><polygon points="-34,-12 0,8 0,45 -34,25" fill="#7c684d" /><polygon points="36,-12 0,8 0,45 36,25" fill="#5e4f3b" /><path d="M0 8 V45" stroke="#514432" stroke-width="3" opacity=".35"/><circle cx="-12" cy="-5" r="4" fill="#8bb174" opacity=".7"/></g><g transform="translate(408 244) scale(0.56)" ><path d="M-33 -45 H33 V45 L21 35 L10 45 L0 35 L-11 45 L-22 35 L-33 45 Z" fill="#fffdf4" stroke="#594b37" stroke-width="4" transform="rotate(6)"/><path d="M-15 -18 H18 M-15 0 H20 M-15 18 H9" stroke="#8bb174" stroke-width="5" stroke-linecap="round" transform="rotate(6)"/></g><path d="M218 96 C248 74 276 75 302 98 L302 260 L218 260 Z" fill="#63533e" opacity=".88"/><path d="M230 116 H290 M230 149 H290 M230 182 H290" stroke="#ffd56f" stroke-width="7" stroke-linecap="round"/><circle cx="259" cy="232" r="13" fill="#fff8d6" opacity=".85"/>
  
    <g transform="translate(33 42)">
      <rect x="0" y="-20" width="205" height="36" rx="18" fill="#ffffff" opacity=".92"/>
      <text x="16" y="2" font-family="Arial, Helvetica, sans-serif" font-size="16" font-weight="900" fill="#26302c" >Ku-Stock-She</text>
    </g>
  
</svg>
