<?xml version="1.0" encoding="UTF-8"?>
<svg xmlns="http://www.w3.org/2000/svg" width="1040" height="720" viewBox="0 0 520 360" role="img" aria-labelledby="title desc">
  <title id="title">囤纸牢</title>
  <desc id="desc">Low-poly sticker persona scene: 囤纸牢.</desc>
  <rect width="520" height="360" rx="28" fill="#ffffff"/>
  <rect x="18" y="18" width="484" height="324" rx="24" fill="#f6f1e8" opacity=".32"/>
  <path d="M33 72 H492 M33 118 H492 M33 164 H492 M33 210 H492 M33 256 H492 M78 30 V332 M142 30 V332 M206 30 V332 M270 30 V332 M334 30 V332 M398 30 V332 M462 30 V332" stroke="#e0ded7" stroke-width="1" opacity=".4"/>
  <circle cx="83" cy="78" r="58" fill="#e6f0e1" opacity=".22"/>
  <circle cx="435" cy="281" r="62" fill="#e0ded7" opacity=".18"/>
  
    <path d="M54 294 C136 333 386 335 466 292" fill="none" stroke="#e9eee6" stroke-width="18" stroke-linecap="round" opacity=".78"/>
    <rect x="58" y="302" width="118" height="18" rx="11" fill="#e6d9bf" stroke="#b8ae99" stroke-width="3" transform="rotate(-2 117 311)"/>
    <rect x="340" y="58" width="110" height="16" rx="11" fill="#b3af9e" stroke="#8f8c7e" stroke-width="3" transform="rotate(1 395 66)"/>
  <rect x="112" y="78" width="296" height="206" rx="20" fill="#fffaf0" stroke="#514c39" stroke-width="7"/><path d="M160 82 V282 M210 82 V282 M260 82 V282 M310 82 V282 M360 82 V282" stroke="#70694f" stroke-width="10"/><path d="M111 145 H409 M111 217 H409" stroke="#99937d" stroke-width="7"/><g opacity=".92"><g transform="translate(94 257) scale(0.52)" ><polygon points="-34,-12 0,-30 36,-12 0,8" fill="#9d9882" /><polygon points="-34,-12 0,8 0,45 -34,25" fill="#7c7558" /><polygon points="36,-12 0,8 0,45 36,25" fill="#5e5943" /><path d="M0 8 V45" stroke="#514c39" stroke-width="3" opacity=".35"/><circle cx="-12" cy="-5" r="4" fill="#c7a96d" opacity=".7"/></g><g transform="translate(430 109) scale(0.5)" ><polygon points="-34,-12 0,-30 36,-12 0,8" fill="#b0ad9b" /><polygon points="-34,-12 0,8 0,45 -34,25" fill="#969179" /><polygon points="36,-12 0,8 0,45 36,25" fill="#726e5c" /><path d="M0 8 V45" stroke="#625e4f" stroke-width="3" opacity=".35"/><circle cx="-12" cy="-5" r="4" fill="#8dbb75" opacity=".7"/></g></g><g transform="translate(260 244) scale(0.58)" >
      <ellipse cx="0" cy="87" rx="72" ry="13" fill="#17201d" opacity=".16"/>
      <polygon points="-39,8 39,8 57,70 -57,70" fill="#7c7558" />
      <polygon points="-39,8 0,24 -57,70" fill="#908a71" opacity=".8"/>
      <polygon points="39,8 0,24 57,70" fill="#6b654c" opacity=".76"/>
      <path d="M-40 19 L-82 44 M40 18 L82 44" stroke="#868065" stroke-width="17" stroke-linecap="round"/>
      <circle cx="-86" cy="46" r="10" fill="#efd0b9"/><circle cx="86" cy="46" r="10" fill="#efd0b9"/>
      <g transform="translate(0 -64)">
        <polygon points="-53,-30 -14,-61 39,-55 63,-16 51,38 0,56 -48,33" fill="#efd0b9" />
        <polygon points="-53,-30 -14,-61 -8,0 -48,33" fill="#f1d5c0" opacity=".8"/>
        <polygon points="39,-55 63,-16 51,38 7,-1" fill="#d2b7a3" opacity=".62"/>
        <polygon points="-65,-20 -34,-73 30,-73 67,-18 54,46 -54,44" fill="#5d5842" />
        <path d="M-26 -14 L-7 -18 M7 -18 L27 -14" stroke="#2d2520" stroke-width="5" stroke-linecap="round"/>
        <circle cx="-18" cy="0" r="4.5" fill="#2d2520"/><circle cx="19" cy="0" r="4.5" fill="#2d2520"/>
        <polygon points="0,0 -8,14 8,13" fill="#dcbfaa" opacity=".75"/>
        <path d="M-18 23 Q0 9 18 23" fill="none" stroke="#854e4a" stroke-width="5" stroke-linecap="round"/>
      </g>
      <circle cx="-41" cy="9" r="5" fill="#c7a96d" opacity=".72"/><circle cx="40" cy="9" r="5" fill="#8dbb75" opacity=".72"/>
    </g>
  
    <g transform="translate(33 42)">
      <rect x="0" y="-20" width="205" height="36" rx="18" fill="#ffffff" opacity=".92"/>
      <text x="16" y="2" font-family="Arial, Helvetica, sans-serif" font-size="16" font-weight="900" fill="#26302c" >Tun-Paper-Lao</text>
    </g>
  
</svg>
