<?xml version="1.0" encoding="UTF-8"?>
<svg xmlns="http://www.w3.org/2000/svg" width="1040" height="720" viewBox="0 0 520 360" role="img" aria-labelledby="title desc">
  <title id="title">表格阎王</title>
  <desc id="desc">Low-poly sticker persona scene: 表格阎王.</desc>
  <rect width="520" height="360" rx="28" fill="#ffffff"/>
  <rect x="18" y="18" width="484" height="324" rx="24" fill="#f3f8e7" opacity=".32"/>
  <path d="M33 72 H492 M33 118 H492 M33 164 H492 M33 210 H492 M33 256 H492 M78 30 V332 M142 30 V332 M206 30 V332 M270 30 V332 M334 30 V332 M398 30 V332 M462 30 V332" stroke="#d5dbd7" stroke-width="1" opacity=".4"/>
  <circle cx="83" cy="78" r="58" fill="#d1dbd7" opacity=".22"/>
  <circle cx="435" cy="281" r="62" fill="#d5dbd7" opacity=".18"/>
  <rect x="38" y="72" width="172" height="218" rx="14" fill="#fffef7" stroke="#354639" stroke-width="5"/><path d="M68 118 H180 M68 159 H180 M68 200 H180 M108 88 V270 M148 88 V270" stroke="#e7f1d0" stroke-width="5"/><path d="M286 257 H468 V294 H286 Z" fill="#354639"/><path d="M336 106 L386 106 L409 255 H312 Z" fill="#556e5b"/><path d="M321 122 H401" stroke="#2f5d49" stroke-width="8" stroke-linecap="round"/><g transform="translate(365 151) scale(0.72)" ><rect x="-50" y="-28" width="100" height="56" rx="8" fill="#fffdf4" stroke="#354639" stroke-width="4"/><path d="M-28 -6 H27 M-28 12 H18" stroke="#b4d36b" stroke-width="5" stroke-linecap="round"/></g><g transform="translate(254 240) scale(0.62)" >
      <ellipse cx="0" cy="87" rx="72" ry="13" fill="#17201d" opacity=".16"/>
      <polygon points="-39,8 39,8 57,70 -57,70" fill="#526b58" />
      <polygon points="-39,8 0,24 -57,70" fill="#6c8171" opacity=".8"/>
      <polygon points="39,8 0,24 57,70" fill="#475c4c" opacity=".76"/>
      <path d="M-40 19 L-82 44 M40 18 L82 44" stroke="#607765" stroke-width="17" stroke-linecap="round"/>
      <circle cx="-86" cy="46" r="10" fill="#efd0b9"/><circle cx="86" cy="46" r="10" fill="#efd0b9"/>
      <g transform="translate(0 -64)">
        <polygon points="-53,-30 -14,-61 39,-55 63,-16 51,38 0,56 -48,33" fill="#efd0b9" />
        <polygon points="-53,-30 -14,-61 -8,0 -48,33" fill="#f1d5c0" opacity=".8"/>
        <polygon points="39,-55 63,-16 51,38 7,-1" fill="#d2b7a3" opacity=".62"/>
        <polygon points="-55,-30 -19,-64 38,-59 64,-22 50,-2 -8,-30" fill="#1f2428" /><polygon points="-31,-82 -16,-58 0,-82 14,-58 31,-82 25,-50 -26,-50" fill="#2f5d49" />
        <path d="M-26 -14 L-7 -18 M7 -18 L27 -14" stroke="#2d2520" stroke-width="5" stroke-linecap="round"/>
        <circle cx="-18" cy="0" r="4.5" fill="#2d2520"/><circle cx="19" cy="0" r="4.5" fill="#2d2520"/>
        <polygon points="0,0 -8,14 8,13" fill="#dcbfaa" opacity=".75"/>
        <path d="M-18 23 Q0 9 18 23" fill="none" stroke="#854e4a" stroke-width="5" stroke-linecap="round"/>
      </g>
      <circle cx="-41" cy="9" r="5" fill="#b4d36b" opacity=".72"/><circle cx="40" cy="9" r="5" fill="#2f5d49" opacity=".72"/>
    </g>
  
    <g transform="translate(33 42)">
      <rect x="0" y="-20" width="205" height="36" rx="18" fill="#ffffff" opacity=".92"/>
      <text x="16" y="2" font-family="Arial, Helvetica, sans-serif" font-size="16" font-weight="900" fill="#26302c" >Excel-Yan-Wang</text>
    </g>
  
</svg>
