<?xml version="1.0" encoding="UTF-8"?>
<svg xmlns="http://www.w3.org/2000/svg" width="1040" height="720" viewBox="0 0 520 360" role="img" aria-labelledby="title desc">
  <title id="title">熟人毒仓</title>
  <desc id="desc">Low-poly sticker persona scene: 熟人毒仓.</desc>
  <rect width="520" height="360" rx="28" fill="#ffffff"/>
  <rect x="18" y="18" width="484" height="324" rx="24" fill="#faf3e3" opacity=".32"/>
  <path d="M33 72 H492 M33 118 H492 M33 164 H492 M33 210 H492 M33 256 H492 M78 30 V332 M142 30 V332 M206 30 V332 M270 30 V332 M334 30 V332 M398 30 V332 M462 30 V332" stroke="#dcdbd6" stroke-width="1" opacity=".4"/>
  <circle cx="83" cy="78" r="58" fill="#e8ebdf" opacity=".22"/>
  <circle cx="435" cy="281" r="62" fill="#dcdbd6" opacity=".18"/>
  
    <path d="M54 294 C136 333 386 335 466 292" fill="none" stroke="#e9eee6" stroke-width="18" stroke-linecap="round" opacity=".78"/>
    <rect x="58" y="302" width="118" height="18" rx="11" fill="#f1deb2" stroke="#c1b28e" stroke-width="3" transform="rotate(-2 117 311)"/>
    <rect x="340" y="58" width="110" height="16" rx="11" fill="#aba99c" stroke="#89877d" stroke-width="3" transform="rotate(1 395 66)"/>
  <circle cx="260" cy="178" r="96" fill="#b0aea2" stroke="#484637" stroke-width="10"/><circle cx="260" cy="178" r="54" fill="#fff9e8" stroke="#484637" stroke-width="6"/><path d="M260 124 V232 M206 178 H314" stroke="#484637" stroke-width="7"/><path d="M116 76 L173 171 L60 171 Z" fill="#fff0b2" stroke="#484637" stroke-width="5"/><path d="M116 106 V139" stroke="#484637" stroke-width="8" stroke-linecap="round"/><circle cx="116" cy="154" r="5" fill="#484637" /><g transform="translate(404 105) scale(0.92)" ><path d="M0 -48 L35 4 H-35 Z" fill="#98a36d"/><rect x="-18" y="4" width="36" height="70" rx="16" fill="#484637"/><ellipse cx="0" cy="75" rx="58" ry="18" fill="#e0b44f" opacity=".42"/></g>
  
    <g transform="translate(33 42)">
      <rect x="0" y="-20" width="205" height="36" rx="18" fill="#ffffff" opacity=".92"/>
      <text x="16" y="2" font-family="Arial, Helvetica, sans-serif" font-size="16" font-weight="900" fill="#26302c" >Familiar-Do-Chang</text>
    </g>
  
</svg>
