<?xml version="1.0" encoding="UTF-8"?>
<svg xmlns="http://www.w3.org/2000/svg" width="1040" height="720" viewBox="0 0 520 360" role="img" aria-labelledby="title desc">
  <title id="title">补款喷子</title>
  <desc id="desc">Low-poly sticker persona scene: 补款喷子.</desc>
  <rect width="520" height="360" rx="28" fill="#ffffff"/>
  <rect x="18" y="18" width="484" height="324" rx="24" fill="#fdede1" opacity=".32"/>
  <path d="M33 72 H492 M33 118 H492 M33 164 H492 M33 210 H492 M33 256 H492 M78 30 V332 M142 30 V332 M206 30 V332 M270 30 V332 M334 30 V332 M398 30 V332 M462 30 V332" stroke="#e7d4cf" stroke-width="1" opacity=".4"/>
  <circle cx="83" cy="78" r="58" fill="#d1e2d9" opacity=".22"/>
  <circle cx="435" cy="281" r="62" fill="#e7d4cf" opacity=".18"/>
  <rect x="18" y="18" width="484" height="324" rx="24" fill="#211818" opacity=".94"/><g transform="translate(261 88) scale(1.08)" ><polygon points="0,-56 14,-19 52,-36 30,-4 58,17 22,17 14,56 -5,25 -39,43 -23,8 -58,-4 -22,-16" fill="#2f7d53" transform="rotate(12)"/></g><g transform="translate(223 114) scale(0.7)" ><polygon points="0,-56 14,-19 52,-36 30,-4 58,17 22,17 14,56 -5,25 -39,43 -23,8 -58,-4 -22,-16" fill="#f28c45" transform="rotate(-18)"/></g><polygon points="135,300 219,128 276,188 354,300" fill="#894431" /><polygon points="219,128 246,184 276,188" fill="#ffefb3" /><polygon points="163,300 223,170 249,300" fill="#9c4d38" opacity=".88"/><g transform="translate(118 150) scale(0.58)" ><path d="M-33 -45 H33 V45 L21 35 L10 45 L0 35 L-11 45 L-22 35 L-33 45 Z" fill="#fffdf4" stroke="#703728" stroke-width="4" transform="rotate(-18)"/><path d="M-15 -18 H18 M-15 0 H20 M-15 18 H9" stroke="#f28c45" stroke-width="5" stroke-linecap="round" transform="rotate(-18)"/></g><g transform="translate(405 151) scale(0.58)" ><path d="M-33 -45 H33 V45 L21 35 L10 45 L0 35 L-11 45 L-22 35 L-33 45 Z" fill="#fffdf4" stroke="#703728" stroke-width="4" transform="rotate(17)"/><path d="M-15 -18 H18 M-15 0 H20 M-15 18 H9" stroke="#f28c45" stroke-width="5" stroke-linecap="round" transform="rotate(17)"/></g><g transform="translate(331 95) scale(0.42)" ><path d="M-33 -45 H33 V45 L21 35 L10 45 L0 35 L-11 45 L-22 35 L-33 45 Z" fill="#fffdf4" stroke="#703728" stroke-width="4" transform="rotate(12)"/><path d="M-15 -18 H18 M-15 0 H20 M-15 18 H9" stroke="#f28c45" stroke-width="5" stroke-linecap="round" transform="rotate(12)"/></g><g transform="translate(262 256) scale(0.65)" >
      <ellipse cx="0" cy="87" rx="72" ry="13" fill="#17201d" opacity=".16"/>
      <polygon points="-39,8 39,8 57,70 -57,70" fill="#9c4d38" />
      <polygon points="-39,8 0,24 -57,70" fill="#ab6856" opacity=".8"/>
      <polygon points="39,8 0,24 57,70" fill="#864230" opacity=".76"/>
      <path d="M-40 19 L-82 44 M40 18 L82 44" stroke="#a45b48" stroke-width="17" stroke-linecap="round"/>
      <circle cx="-86" cy="46" r="10" fill="#efd0b9"/><circle cx="86" cy="46" r="10" fill="#efd0b9"/>
      <g transform="translate(0 -64)">
        <polygon points="-53,-30 -14,-61 39,-55 63,-16 51,38 0,56 -48,33" fill="#efd0b9" />
        <polygon points="-53,-30 -14,-61 -8,0 -48,33" fill="#f1d5c0" opacity=".8"/>
        <polygon points="39,-55 63,-16 51,38 7,-1" fill="#d2b7a3" opacity=".62"/>
        <polygon points="-60,-25 -39,-72 -12,-45 11,-75 31,-43 63,-34 45,-6 -11,-30" fill="#1f2428" />
        <path d="M-26 -14 L-7 -18 M7 -18 L27 -14" stroke="#2d2520" stroke-width="5" stroke-linecap="round"/>
        <circle cx="-18" cy="0" r="4.5" fill="#2d2520"/><circle cx="19" cy="0" r="4.5" fill="#2d2520"/>
        <polygon points="0,0 -8,14 8,13" fill="#dcbfaa" opacity=".75"/>
        <path d="M-18 23 Q0 9 18 23" fill="none" stroke="#854e4a" stroke-width="5" stroke-linecap="round"/>
      </g>
      <circle cx="-41" cy="9" r="5" fill="#f28c45" opacity=".72"/><circle cx="40" cy="9" r="5" fill="#2f7d53" opacity=".72"/>
    </g>
  
    <g transform="translate(33 42)">
      <rect x="0" y="-20" width="205" height="36" rx="18" fill="#ffffff" opacity=".92"/>
      <text x="16" y="2" font-family="Arial, Helvetica, sans-serif" font-size="16" font-weight="900" fill="#26302c" >Boo-Kuan-Pen</text>
    </g>
  
</svg>
