<?xml version="1.0" encoding="UTF-8"?>
<svg xmlns="http://www.w3.org/2000/svg" width="1040" height="720" viewBox="0 0 520 360" role="img" aria-labelledby="title desc">
  <title id="title">熟人毒仓</title>
  <desc id="desc">Distinct low-poly sticker persona scene for 熟人毒仓.</desc>
  <rect width="520" height="360" rx="28" fill="#ffffff"/>
  <rect x="18" y="18" width="484" height="324" rx="24" fill="#e3e6df" opacity=".2"/>
  <path d="M54 294 C136 333 386 335 466 292" fill="none" stroke="#e9eee6" stroke-width="18" stroke-linecap="round" opacity=".78"/>
  <g transform="translate(104 132) scale(0.86)"><polygon points="0,-45 44,34 -44,34" fill="#fff1b8" stroke="#675135" stroke-width="4"/><path d="M0 -18 V10" stroke="#675135" stroke-width="7" stroke-linecap="round"/><circle cx="0" cy="23" r="5" fill="#675135"/></g><g transform="translate(392 246) scale(0.7)"><polygon points="-30,-12 0,-27 32,-12 0,6" fill="#ae987d" /><polygon points="-30,-12 0,6 0,42 -30,24" fill="#8f704a" /><polygon points="32,-12 0,6 0,42 32,24" fill="#675135" /></g><path d="M345 91 L466 91" stroke="#75825d" stroke-width="8" stroke-linecap="round"/>
  
    <g transform="translate(260 260) scale(1.18)">
      <ellipse cx="0" cy="92" rx="78" ry="14" fill="#17201d" opacity=".14"/>
      
      
        <path d="M-38 8 L-64.5 0.5 L-91 -7" fill="none" stroke="#987b58" stroke-width="18" stroke-linecap="round" stroke-linejoin="round"/>
        <circle cx="-64.5" cy="0.5" r="4" fill="#75825d" opacity=".58"/>
        <circle cx="-91" cy="-7" r="10" fill="#efd3bc"/>
        <circle cx="-91" cy="-7" r="5" fill="#dcc2ad" opacity=".35"/>
      
        <path d="M38 8 L51.5 21 L65 34" fill="none" stroke="#987b58" stroke-width="18" stroke-linecap="round" stroke-linejoin="round"/>
        <circle cx="51.5" cy="21" r="4" fill="#75825d" opacity=".58"/>
        <circle cx="65" cy="34" r="10" fill="#efd3bc"/>
        <circle cx="65" cy="34" r="5" fill="#dcc2ad" opacity=".35"/>
      
      <polygon points="-47,-10 47,-10 63,62 -63,62" fill="#8f704a" />
      <polygon points="-47,-10 0,7 -63,62" fill="#9f8463" opacity=".78"/>
      <polygon points="47,-10 0,7 63,62" fill="#7e6341" opacity=".72"/>
      <polygon points="-17,-25 17,-25 15,-8 -15,-8" fill="#d8b298"/>
      <g transform="translate(0 -74) scale(1.2)">
        <polygon points="-54,-30 -17,-65 38,-58 66,-19 52,38 0,56 -50,34" fill="#efd3bc" />
        <polygon points="-54,-30 -17,-65 -7,-4 -50,34" fill="#f6dfcd" opacity=".76"/>
        <polygon points="-17,-65 38,-58 8,-2 -7,-4" fill="#f1d7c3" />
        <polygon points="38,-58 66,-19 52,38 8,-2" fill="#d8b298" opacity=".58"/>
        <polygon points="-50,34 -7,-4 0,56" fill="#e3c8b3" opacity=".62"/>
        <polygon points="8,-2 52,38 0,56" fill="#f0d5bf" opacity=".62"/>
        <polygon points="-58,-20 -17,-70 35,-65 64,-34 46,-16 -7,-35" fill="#24282b" />
        <polygon points="-17,-70 35,-65 51,-35 0,-44" fill="#505355" />
        <polygon points="46,-16 69,-8 64,-34 38,-25" fill="#1d2022" />
        <polygon points="-58,-20 -70,6 -50,0 -40,-39" fill="#1d2022" />
        
    <path d="M-27 -18 L-7 -10 M8 -10 L28 -18" stroke="#2d2520" stroke-width="5" stroke-linecap="round"/>
    <circle cx="-18" cy="-1" r="4" fill="#2d2520"/>
    <circle cx="19" cy="-1" r="4" fill="#2d2520"/>
    <polygon points="0,0 -8,14 8,13" fill="#dcc2ad" opacity=".75"/>
    <path d="M-18 18 L18 15" stroke="#854e4a" stroke-width="5" stroke-linecap="round"/>
    
  
      </g>
    </g>
  
  
    <g transform="translate(34 42)">
      <rect x="0" y="-20" width="184" height="36" rx="18" fill="#ffffff" opacity=".9"/>
      <text x="16" y="2" font-family="Arial, Helvetica, sans-serif" font-size="16" font-weight="800" fill="#26302c">Familiar-Do-Chang</text>
    </g>
  
</svg>
