<?xml version="1.0" encoding="UTF-8"?>
<svg xmlns="http://www.w3.org/2000/svg" width="1040" height="720" viewBox="0 0 520 360" role="img" aria-labelledby="title desc">
  <title id="title">晒单显眼包</title>
  <desc id="desc">Low-poly sticker persona scene: 晒单显眼包.</desc>
  <rect width="520" height="360" rx="28" fill="#ffffff"/>
  <rect x="18" y="18" width="484" height="324" rx="24" fill="#fdf4e2" opacity=".32"/>
  <path d="M33 72 H492 M33 118 H492 M33 164 H492 M33 210 H492 M33 256 H492 M78 30 V332 M142 30 V332 M206 30 V332 M270 30 V332 M334 30 V332 M398 30 V332 M462 30 V332" stroke="#edd9d3" stroke-width="1" opacity=".4"/>
  <circle cx="83" cy="78" r="58" fill="#ffe5ec" opacity=".22"/>
  <circle cx="435" cy="281" r="62" fill="#edd9d3" opacity=".18"/>
  
    <path d="M54 294 C136 333 386 335 466 292" fill="none" stroke="#e9eee6" stroke-width="18" stroke-linecap="round" opacity=".78"/>
    <rect x="58" y="302" width="118" height="18" rx="11" fill="#f9e2b0" stroke="#c7b58d" stroke-width="3" transform="rotate(-2 117 311)"/>
    <rect x="340" y="58" width="110" height="16" rx="11" fill="#d4a294" stroke="#aa8276" stroke-width="3" transform="rotate(1 395 66)"/>
  <g transform="translate(110 171) scale(0.98)" ><rect x="-34" y="-58" width="68" height="116" rx="13" fill="#7e4331" transform="rotate(-8)"/><rect x="-25" y="-43" width="50" height="82" rx="7" fill="#fffdf7" transform="rotate(-8)"/><g transform="rotate(-8)"><path d="M-13 -18 H12 M-15 2 H17 M-12 22 H10" stroke="#f2bd4c" stroke-width="5" stroke-linecap="round"/><circle cx="15" cy="-28" r="7" fill="#ff8aa8"/></g></g><g transform="translate(400 113) scale(1)" ><rect x="-55" y="-28" width="110" height="72" rx="13" fill="#753e2e"/><rect x="-26" y="-45" width="42" height="18" rx="5" fill="#753e2e"/><circle cx="4" cy="8" r="24" fill="#fff"/><circle cx="4" cy="8" r="12" fill="#f2bd4c"/></g><g transform="translate(384 220) scale(0.48)" ><polygon points="0,-56 14,-19 52,-36 30,-4 58,17 22,17 14,56 -5,25 -39,43 -23,8 -58,-4 -22,-16" fill="#ff8aa8" transform="rotate(0)"/></g><path d="M162 292 C220 253 301 255 357 292" fill="none" stroke="#f2bd4c" stroke-width="13" stroke-linecap="round"/><g transform="translate(263 235) scale(0.62)" >
      <ellipse cx="0" cy="87" rx="72" ry="13" fill="#17201d" opacity=".16"/>
      <polygon points="-39,8 39,8 57,70 -57,70" fill="#b45f46" />
      <polygon points="-39,8 0,24 -57,70" fill="#bf7762" opacity=".8"/>
      <polygon points="39,8 0,24 57,70" fill="#9b523c" opacity=".76"/>
      <path d="M-40 19 L-82 44 M40 18 L82 44" stroke="#ba6c55" stroke-width="17" stroke-linecap="round"/>
      <circle cx="-86" cy="46" r="10" fill="#efd0b9"/><circle cx="86" cy="46" r="10" fill="#efd0b9"/>
      <g transform="translate(0 -64)">
        <polygon points="-53,-30 -14,-61 39,-55 63,-16 51,38 0,56 -48,33" fill="#efd0b9" />
        <polygon points="-53,-30 -14,-61 -8,0 -48,33" fill="#f1d5c0" opacity=".8"/>
        <polygon points="39,-55 63,-16 51,38 7,-1" fill="#d2b7a3" opacity=".62"/>
        <polygon points="-54,-33 -22,-70 36,-62 63,-28 48,-4 -6,-28" fill="#202529" /><polygon points="-21,-70 37,-62 52,-30 -2,-39" fill="#42464a" />
        <path d="M-26 -14 L-7 -18 M7 -18 L27 -14" stroke="#2d2520" stroke-width="5" stroke-linecap="round"/>
        <circle cx="-18" cy="0" r="4.5" fill="#2d2520"/><circle cx="19" cy="0" r="4.5" fill="#2d2520"/>
        <polygon points="0,0 -8,14 8,13" fill="#dcbfaa" opacity=".75"/>
        <path d="M-18 23 Q0 9 18 23" fill="none" stroke="#854e4a" stroke-width="5" stroke-linecap="round"/>
      </g>
      <circle cx="-41" cy="9" r="5" fill="#f2bd4c" opacity=".72"/><circle cx="40" cy="9" r="5" fill="#ff8aa8" opacity=".72"/>
    </g>
  
    <g transform="translate(33 42)">
      <rect x="0" y="-20" width="205" height="36" rx="18" fill="#ffffff" opacity=".92"/>
      <text x="16" y="2" font-family="Arial, Helvetica, sans-serif" font-size="16" font-weight="900" fill="#26302c" >Show-Dan-Bag</text>
    </g>
  
</svg>
