<?xml version="1.0" encoding="UTF-8"?>
<svg xmlns="http://www.w3.org/2000/svg" width="1040" height="720" viewBox="0 0 520 360" role="img" aria-labelledby="title desc">
  <title id="title">断货疯批</title>
  <desc id="desc">Low-poly sticker persona scene: 断货疯批.</desc>
  <rect width="520" height="360" rx="28" fill="#ffffff"/>
  <rect x="18" y="18" width="484" height="324" rx="24" fill="#fde2e0" opacity=".32"/>
  <path d="M33 72 H492 M33 118 H492 M33 164 H492 M33 210 H492 M33 256 H492 M78 30 V332 M142 30 V332 M206 30 V332 M270 30 V332 M334 30 V332 M398 30 V332 M462 30 V332" stroke="#eed2d1" stroke-width="1" opacity=".4"/>
  <circle cx="83" cy="78" r="58" fill="#fff6dc" opacity=".22"/>
  <circle cx="435" cy="281" r="62" fill="#eed2d1" opacity=".18"/>
  <rect x="45" y="65" width="170" height="64" rx="13" fill="#fff" stroke="#782c28" stroke-width="5"/><text x="66" y="105" font-family="Arial, Helvetica, sans-serif" font-size="24" font-weight="900" fill="#f04b3f" >SOLD OUT</text><g transform="translate(385 123) scale(1.04)" ><path d="M0 -56 L45 18 H-45 Z" fill="#ffd45f"/><rect x="-19" y="18" width="38" height="72" rx="17" fill="#782c28"/><path d="M-76 -34 Q0 -92 78 -33" fill="none" stroke="#f04b3f" stroke-width="9" stroke-linecap="round"/></g><g transform="translate(105 239) scale(0.64)" ><polygon points="0,-56 14,-19 52,-36 30,-4 58,17 22,17 14,56 -5,25 -39,43 -23,8 -58,-4 -22,-16" fill="#f04b3f" transform="rotate(0)"/></g><g transform="translate(420 254) scale(0.56)" ><path d="M-33 -45 H33 V45 L21 35 L10 45 L0 35 L-11 45 L-22 35 L-33 45 Z" fill="#fffdf4" stroke="#84312d" stroke-width="4" transform="rotate(-9)"/><path d="M-15 -18 H18 M-15 0 H20 M-15 18 H9" stroke="#f04b3f" stroke-width="5" stroke-linecap="round" transform="rotate(-9)"/></g><g transform="translate(262 246) scale(0.72)" >
      <ellipse cx="0" cy="87" rx="72" ry="13" fill="#17201d" opacity=".16"/>
      <polygon points="-39,8 39,8 57,70 -57,70" fill="#b8443e" />
      <polygon points="-39,8 0,24 -57,70" fill="#c3605b" opacity=".8"/>
      <polygon points="39,8 0,24 57,70" fill="#9e3a35" opacity=".76"/>
      <path d="M-40 19 L-82 44 M40 18 L82 44" stroke="#be534d" stroke-width="17" stroke-linecap="round"/>
      <circle cx="-86" cy="46" r="10" fill="#efd0b9"/><circle cx="86" cy="46" r="10" fill="#efd0b9"/>
      <g transform="translate(0 -64)">
        <polygon points="-53,-30 -14,-61 39,-55 63,-16 51,38 0,56 -48,33" fill="#efd0b9" />
        <polygon points="-53,-30 -14,-61 -8,0 -48,33" fill="#f1d5c0" opacity=".8"/>
        <polygon points="39,-55 63,-16 51,38 7,-1" fill="#d2b7a3" opacity=".62"/>
        <polygon points="-60,-25 -39,-72 -12,-45 11,-75 31,-43 63,-34 45,-6 -11,-30" fill="#1f2428" />
        <path d="M-26 -14 L-7 -18 M7 -18 L27 -14" stroke="#2d2520" stroke-width="5" stroke-linecap="round"/>
        <circle cx="-18" cy="0" r="4.5" fill="#2d2520"/><circle cx="19" cy="0" r="4.5" fill="#2d2520"/>
        <polygon points="0,0 -8,14 8,13" fill="#dcbfaa" opacity=".75"/>
        <path d="M-18 23 Q0 9 18 23" fill="none" stroke="#854e4a" stroke-width="5" stroke-linecap="round"/>
      </g>
      <circle cx="-41" cy="9" r="5" fill="#f04b3f" opacity=".72"/><circle cx="40" cy="9" r="5" fill="#ffd45f" opacity=".72"/>
    </g>
  
    <g transform="translate(33 42)">
      <rect x="0" y="-20" width="205" height="36" rx="18" fill="#ffffff" opacity=".92"/>
      <text x="16" y="2" font-family="Arial, Helvetica, sans-serif" font-size="16" font-weight="900" fill="#26302c" >Soldout-Feng-Pi</text>
    </g>
  
</svg>
