<?xml version="1.0" encoding="UTF-8"?>
<svg xmlns="http://www.w3.org/2000/svg" width="1040" height="720" viewBox="0 0 520 360" role="img" aria-labelledby="title desc">
  <title id="title">囤纸牢</title>
  <desc id="desc">Distinct low-poly sticker persona scene for 囤纸牢.</desc>
  <rect width="520" height="360" rx="28" fill="#ffffff"/>
  <rect x="18" y="18" width="484" height="324" rx="24" fill="#e5e9e1" opacity=".2"/>
  <path d="M54 294 C136 333 386 335 466 292" fill="none" stroke="#e9eee6" stroke-width="18" stroke-linecap="round" opacity=".78"/>
  
    <rect x="44" y="246" width="430" height="16" rx="8" fill="#d1d9ca" opacity=".7"/>
    <rect x="58" y="174" width="150" height="12" rx="6" fill="#d1bd99" opacity=".75"/>
    <rect x="326" y="170" width="132" height="12" rx="6" fill="#d1bd99" opacity=".75"/>
  <g transform="translate(94 128) scale(0.72)"><polygon points="-30,-12 0,-27 32,-12 0,6" fill="#ccb68e" /><polygon points="-30,-12 0,6 0,42 -30,24" fill="#b89a62" /><polygon points="32,-12 0,6 0,42 32,24" fill="#846f47" /></g><g transform="translate(157 128) scale(0.62)"><polygon points="-30,-12 0,-27 32,-12 0,6" fill="#d4c2a0" /><polygon points="-30,-12 0,6 0,42 -30,24" fill="#c3aa7b" /><polygon points="32,-12 0,6 0,42 32,24" fill="#8c7a59" /></g><g transform="translate(391 124) scale(0.72)"><polygon points="-30,-12 0,-27 32,-12 0,6" fill="#ccb68e" /><polygon points="-30,-12 0,6 0,42 -30,24" fill="#b89a62" /><polygon points="32,-12 0,6 0,42 32,24" fill="#846f47" /></g><g transform="translate(108 252) scale(0.5)"><path d="M-26 -38 H26 V38 L15 30 L4 38 L-7 30 L-18 38 L-26 30 Z" fill="#fffdf4" stroke="#846f47" stroke-width="4"/><path d="M-12 -14 H14 M-12 2 H16 M-12 18 H8" stroke="#7b9367" stroke-width="5" stroke-linecap="round"/></g>
  
    <g transform="translate(340 256) scale(0.72)">
      <ellipse cx="0" cy="92" rx="78" ry="14" fill="#17201d" opacity=".14"/>
      
        <polygon points="-28,50 -52,91 -32,91 -10,53" fill="#887249" />
        <polygon points="28,50 52,91 32,91 10,53" fill="#9b8152" />
        <rect x="-58" y="88" width="36" height="9" rx="4" fill="#1e2221"/>
        <rect x="23" y="88" width="36" height="9" rx="4" fill="#1e2221"/>
      
      
        <path d="M-38 10 L-30 31 L-22 52" fill="none" stroke="#bea26f" stroke-width="18" stroke-linecap="round" stroke-linejoin="round"/>
        <circle cx="-30" cy="31" r="4" fill="#7b9367" opacity=".58"/>
        <circle cx="-22" cy="52" r="10" fill="#efd3bc"/>
        <circle cx="-22" cy="52" r="5" fill="#dcc2ad" opacity=".35"/>
      
        <path d="M38 10 L30 31 L22 52" fill="none" stroke="#bea26f" stroke-width="18" stroke-linecap="round" stroke-linejoin="round"/>
        <circle cx="30" cy="31" r="4" fill="#7b9367" opacity=".58"/>
        <circle cx="22" cy="52" r="10" fill="#efd3bc"/>
        <circle cx="22" cy="52" r="5" fill="#dcc2ad" opacity=".35"/>
      
      <polygon points="-47,-10 47,-10 63,62 -63,62" fill="#b89a62" />
      <polygon points="-47,-10 0,7 -63,62" fill="#c2a878" opacity=".78"/>
      <polygon points="47,-10 0,7 63,62" fill="#a28856" opacity=".72"/>
      <polygon points="-17,-25 17,-25 15,-8 -15,-8" fill="#d8b298"/>
      <g transform="translate(0 -74) scale(1.05)">
        <polygon points="-54,-30 -17,-65 38,-58 66,-19 52,38 0,56 -50,34" fill="#efd3bc" />
        <polygon points="-54,-30 -17,-65 -7,-4 -50,34" fill="#f6dfcd" opacity=".76"/>
        <polygon points="-17,-65 38,-58 8,-2 -7,-4" fill="#f1d7c3" />
        <polygon points="38,-58 66,-19 52,38 8,-2" fill="#d8b298" opacity=".58"/>
        <polygon points="-50,34 -7,-4 0,56" fill="#e3c8b3" opacity=".62"/>
        <polygon points="8,-2 52,38 0,56" fill="#f0d5bf" opacity=".62"/>
        <polygon points="-58,-20 -17,-70 35,-65 64,-34 46,-16 -7,-35" fill="#24282b" />
        <polygon points="-17,-70 35,-65 51,-35 0,-44" fill="#505355" />
        <polygon points="46,-16 69,-8 64,-34 38,-25" fill="#1d2022" />
        <polygon points="-58,-20 -70,6 -50,0 -40,-39" fill="#1d2022" />
        
    <path d="M-24 -14 H-9 M9 -14 H24" stroke="#2d2520" stroke-width="4" stroke-linecap="round"/>
    <circle cx="-18" cy="-1" r="4" fill="#2d2520"/>
    <circle cx="19" cy="-1" r="4" fill="#2d2520"/>
    <polygon points="0,0 -8,14 8,13" fill="#dcc2ad" opacity=".75"/>
    <path d="M-17 17 H17" stroke="#854e4a" stroke-width="4" stroke-linecap="round"/>
    
  
      </g>
    </g>
  
  
    <g transform="translate(34 42)">
      <rect x="0" y="-20" width="184" height="36" rx="18" fill="#ffffff" opacity=".9"/>
      <text x="16" y="2" font-family="Arial, Helvetica, sans-serif" font-size="16" font-weight="800" fill="#26302c">Tun-Paper-Lao</text>
    </g>
  
</svg>
