<?xml version="1.0" encoding="UTF-8"?>
<svg xmlns="http://www.w3.org/2000/svg" width="1040" height="720" viewBox="0 0 520 360" role="img" aria-labelledby="title desc">
  <title id="title">盘货暴君</title>
  <desc id="desc">Distinct low-poly sticker persona scene for 盘货暴君.</desc>
  <rect width="520" height="360" rx="28" fill="#ffffff"/>
  <rect x="18" y="18" width="484" height="324" rx="24" fill="#d6deda" opacity=".2"/>
  <path d="M54 294 C136 333 386 335 466 292" fill="none" stroke="#e9eee6" stroke-width="18" stroke-linecap="round" opacity=".78"/>
  <g transform="translate(104 122) scale(0.75)"><rect x="-45" y="-35" width="90" height="70" rx="8" fill="#fffdf5" stroke="#506145" stroke-width="4"/><path d="M-28 18 L-8 2 L8 10 L30 -18" fill="none" stroke="#315845" stroke-width="7" stroke-linecap="round" stroke-linejoin="round"/></g><g transform="translate(410 112) scale(0.78)"><polygon points="-30,-12 0,-27 32,-12 0,6" fill="#97a98d" /><polygon points="-30,-12 0,6 0,42 -30,24" fill="#6f8760" /><polygon points="32,-12 0,6 0,42 32,24" fill="#506145" /></g><g transform="translate(83 252) scale(0.56)"><polygon points="-30,-12 0,-27 32,-12 0,6" fill="#acbaa4" /><polygon points="-30,-12 0,6 0,42 -30,24" fill="#8c9f80" /><polygon points="32,-12 0,6 0,42 32,24" fill="#65725c" /></g><rect x="342" y="212" width="130" height="62" rx="14" fill="#fff" stroke="#4e5f43" stroke-width="4"/><text x="359" y="251" font-family="Arial" font-size="24" font-weight="900" fill="#4e5f43">AUDIT</text>
  
    <g transform="translate(260 259) scale(1.12)">
      <ellipse cx="0" cy="92" rx="78" ry="14" fill="#17201d" opacity=".14"/>
      
        <polygon points="-28,50 -52,91 -32,91 -10,53" fill="#526447" />
        <polygon points="28,50 52,91 32,91 10,53" fill="#5d7151" />
        <rect x="-58" y="88" width="36" height="9" rx="4" fill="#1e2221"/>
        <rect x="23" y="88" width="36" height="9" rx="4" fill="#1e2221"/>
      
      
        <path d="M-38 8 L-62 -11 L-86 -30" fill="none" stroke="#7b916d" stroke-width="18" stroke-linecap="round" stroke-linejoin="round"/>
        <circle cx="-62" cy="-11" r="4" fill="#315845" opacity=".58"/>
        <circle cx="-86" cy="-30" r="10" fill="#efd3bc"/>
        <circle cx="-86" cy="-30" r="5" fill="#dcc2ad" opacity=".35"/>
      
        <path d="M38 8 L62 -11 L86 -30" fill="none" stroke="#7b916d" stroke-width="18" stroke-linecap="round" stroke-linejoin="round"/>
        <circle cx="62" cy="-11" r="4" fill="#315845" opacity=".58"/>
        <circle cx="86" cy="-30" r="10" fill="#efd3bc"/>
        <circle cx="86" cy="-30" r="5" fill="#dcc2ad" opacity=".35"/>
      
      <polygon points="-47,-10 47,-10 63,62 -63,62" fill="#6f8760" />
      <polygon points="-47,-10 0,7 -63,62" fill="#839876" opacity=".78"/>
      <polygon points="47,-10 0,7 63,62" fill="#627754" opacity=".72"/>
      <polygon points="-17,-25 17,-25 15,-8 -15,-8" fill="#d8b298"/>
      <g transform="translate(0 -74) scale(1.42)">
        <polygon points="-54,-30 -17,-65 38,-58 66,-19 52,38 0,56 -50,34" fill="#efd3bc" />
        <polygon points="-54,-30 -17,-65 -7,-4 -50,34" fill="#f6dfcd" opacity=".76"/>
        <polygon points="-17,-65 38,-58 8,-2 -7,-4" fill="#f1d7c3" />
        <polygon points="38,-58 66,-19 52,38 8,-2" fill="#d8b298" opacity=".58"/>
        <polygon points="-50,34 -7,-4 0,56" fill="#e3c8b3" opacity=".62"/>
        <polygon points="8,-2 52,38 0,56" fill="#f0d5bf" opacity=".62"/>
        <polygon points="-58,-20 -17,-70 35,-65 64,-34 46,-16 -7,-35" fill="#24282b" />
        <polygon points="-17,-70 35,-65 51,-35 0,-44" fill="#505355" />
        <polygon points="46,-16 69,-8 64,-34 38,-25" fill="#1d2022" />
        <polygon points="-58,-20 -70,6 -50,0 -40,-39" fill="#1d2022" />
        
    <path d="M-28 -15 H-6 M6 -15 H29" stroke="#2d2520" stroke-width="5" stroke-linecap="round"/>
    <circle cx="-18" cy="-1" r="4" fill="#2d2520"/>
    <circle cx="19" cy="-1" r="4" fill="#2d2520"/>
    <polygon points="0,0 -8,14 8,13" fill="#dcc2ad" opacity=".75"/>
    <path d="M-18 17 H18" stroke="#854e4a" stroke-width="5" stroke-linecap="round"/>
    
  
      </g>
    </g>
  
  
    <g transform="translate(34 42)">
      <rect x="0" y="-20" width="184" height="36" rx="18" fill="#ffffff" opacity=".9"/>
      <text x="16" y="2" font-family="Arial, Helvetica, sans-serif" font-size="16" font-weight="800" fill="#26302c">Stock-Pan-Boss</text>
    </g>
  
</svg>
