<?xml version="1.0" encoding="UTF-8"?>
<svg xmlns="http://www.w3.org/2000/svg" width="1040" height="720" viewBox="0 0 520 360" role="img" aria-labelledby="title desc">
  <title id="title">独演疯批</title>
  <desc id="desc">Low-poly sticker persona scene: 独演疯批.</desc>
  <rect width="520" height="360" rx="28" fill="#ffffff"/>
  <rect x="18" y="18" width="484" height="324" rx="24" fill="#f9e9f1" opacity=".32"/>
  <path d="M33 72 H492 M33 118 H492 M33 164 H492 M33 210 H492 M33 256 H492 M78 30 V332 M142 30 V332 M206 30 V332 M270 30 V332 M334 30 V332 M398 30 V332 M462 30 V332" stroke="#ddd6e3" stroke-width="1" opacity=".4"/>
  <circle cx="83" cy="78" r="58" fill="#fff4de" opacity=".22"/>
  <circle cx="435" cy="281" r="62" fill="#ddd6e3" opacity=".18"/>
  <rect x="18" y="18" width="484" height="324" rx="24" fill="#22172a" opacity=".92"/><polygon points="90,62 198,62 255,331 38,331" fill="#e6a4c8" opacity=".55"/><polygon points="322,62 430,62 486,331 270,331" fill="#ffda92" opacity=".42"/><path d="M200 124 C225 91 292 91 318 124 C314 202 296 249 260 267 C223 249 205 202 200 124 Z" fill="#fff6df"/><path d="M225 151 Q242 139 257 154 M295 151 Q278 139 263 154" stroke="#4b375a" stroke-width="7" stroke-linecap="round"/><path d="M230 207 Q260 231 292 207" fill="none" stroke="#d973aa" stroke-width="8" stroke-linecap="round"/><g transform="translate(102 263) scale(0.42)" >
      <ellipse cx="0" cy="87" rx="72" ry="13" fill="#17201d" opacity=".16"/>
      <polygon points="-39,8 39,8 57,70 -57,70" fill="#73548a" />
      <polygon points="-39,8 0,24 -57,70" fill="#886e9c" opacity=".8"/>
      <polygon points="39,8 0,24 57,70" fill="#634877" opacity=".76"/>
      <path d="M-40 19 L-82 44 M40 18 L82 44" stroke="#7e6293" stroke-width="17" stroke-linecap="round"/>
      <circle cx="-86" cy="46" r="10" fill="#efd0b9"/><circle cx="86" cy="46" r="10" fill="#efd0b9"/>
      <g transform="translate(0 -64)">
        <polygon points="-53,-30 -14,-61 39,-55 63,-16 51,38 0,56 -48,33" fill="#efd0b9" />
        <polygon points="-53,-30 -14,-61 -8,0 -48,33" fill="#f1d5c0" opacity=".8"/>
        <polygon points="39,-55 63,-16 51,38 7,-1" fill="#d2b7a3" opacity=".62"/>
        <polygon points="-65,-20 -34,-73 30,-73 67,-18 54,46 -54,44" fill="#563f68" />
        <path d="M-26 -14 L-7 -18 M7 -18 L27 -14" stroke="#2d2520" stroke-width="5" stroke-linecap="round"/>
        <circle cx="-18" cy="0" r="4.5" fill="#2d2520"/><circle cx="19" cy="0" r="4.5" fill="#2d2520"/>
        <polygon points="0,0 -8,14 8,13" fill="#dcbfaa" opacity=".75"/>
        <path d="M-18 23 Q0 9 18 23" fill="none" stroke="#854e4a" stroke-width="5" stroke-linecap="round"/>
      </g>
      <circle cx="-41" cy="9" r="5" fill="#d973aa" opacity=".72"/><circle cx="40" cy="9" r="5" fill="#ffcc68" opacity=".72"/>
    </g>
  
    <g transform="translate(33 42)">
      <rect x="0" y="-20" width="205" height="36" rx="18" fill="#ffffff" opacity=".92"/>
      <text x="16" y="2" font-family="Arial, Helvetica, sans-serif" font-size="16" font-weight="900" fill="#26302c" >Solo-Feng-Pi</text>
    </g>
  
</svg>
