<?xml version="1.0" encoding="UTF-8"?>
<svg xmlns="http://www.w3.org/2000/svg" width="1040" height="720" viewBox="0 0 520 360" role="img" aria-labelledby="title desc">
  <title id="title">冷门神经</title>
  <desc id="desc">Low-poly sticker persona scene: 冷门神经.</desc>
  <rect width="520" height="360" rx="28" fill="#ffffff"/>
  <rect x="18" y="18" width="484" height="324" rx="24" fill="#e8f6ec" opacity=".32"/>
  <path d="M33 72 H492 M33 118 H492 M33 164 H492 M33 210 H492 M33 256 H492 M78 30 V332 M142 30 V332 M206 30 V332 M270 30 V332 M334 30 V332 M398 30 V332 M462 30 V332" stroke="#d7d5e0" stroke-width="1" opacity=".4"/>
  <circle cx="83" cy="78" r="58" fill="#e5f3ff" opacity=".22"/>
  <circle cx="435" cy="281" r="62" fill="#d7d5e0" opacity=".18"/>
  <rect x="28" y="24" width="464" height="312" rx="23" fill="#ecf7ff"/><path d="M215 74 H315 C331 74 340 86 340 104 V287 H190 V104 C190 86 199 74 215 74 Z" fill="#514b75"/><path d="M218 102 H312 V287 H218 Z" fill="#91d5a4"/><circle cx="298" cy="196" r="7" fill="#8ac7ff"/><g transform="translate(101 124) scale(0.66)" ><rect x="-46" y="-36" width="92" height="72" rx="7" fill="#fffef8" stroke="#423e5f" stroke-width="4" transform="rotate(-9)"/><g transform="rotate(-9)"><circle cx="21" cy="-12" r="8" fill="#8ac7ff"/><path d="M-34 23 L-13 1 L3 15 L17 4 L35 23 Z" fill="#95d7a7"/></g></g><g transform="translate(420 124) scale(0.42)" ><polygon points="0,-56 14,-19 52,-36 30,-4 58,17 22,17 14,56 -5,25 -39,43 -23,8 -58,-4 -22,-16" fill="#8ac7ff" transform="rotate(0)"/></g><g transform="translate(98 261) scale(0.56)" ><path d="M0 -35 L32 35 H-32 Z" fill="#58527f"/><circle cx="0" cy="-6" r="9" fill="#72c98a"/></g>
  
    <g transform="translate(33 42)">
      <rect x="0" y="-20" width="205" height="36" rx="18" fill="#ffffff" opacity=".92"/>
      <text x="16" y="2" font-family="Arial, Helvetica, sans-serif" font-size="16" font-weight="900" fill="#26302c" >Cold-Door-Nerve</text>
    </g>
  
</svg>
