<?xml version="1.0" encoding="UTF-8"?>
<svg xmlns="http://www.w3.org/2000/svg" width="1040" height="720" viewBox="0 0 520 360" role="img" aria-labelledby="title desc">
  <title id="title">审美暴君</title>
  <desc id="desc">Low-poly sticker persona scene: 审美暴君.</desc>
  <rect width="520" height="360" rx="28" fill="#ffffff"/>
  <rect x="18" y="18" width="484" height="324" rx="24" fill="#f6f7e6" opacity=".32"/>
  <path d="M33 72 H492 M33 118 H492 M33 164 H492 M33 210 H492 M33 256 H492 M78 30 V332 M142 30 V332 M206 30 V332 M270 30 V332 M334 30 V332 M398 30 V332 M462 30 V332" stroke="#d9dbd6" stroke-width="1" opacity=".4"/>
  <circle cx="83" cy="78" r="58" fill="#e5e2ff" opacity=".22"/>
  <circle cx="435" cy="281" r="62" fill="#d9dbd6" opacity=".18"/>
  
    <path d="M54 294 C136 333 386 335 466 292" fill="none" stroke="#e9eee6" stroke-width="18" stroke-linecap="round" opacity=".78"/>
    <rect x="58" y="302" width="118" height="18" rx="11" fill="#e6eabb" stroke="#b8bb96" stroke-width="3" transform="rotate(-2 117 311)"/>
    <rect x="340" y="58" width="110" height="16" rx="11" fill="#a3a99c" stroke="#82877d" stroke-width="3" transform="rotate(1 395 66)"/>
  <g transform="translate(96 123) scale(0.82)" ><rect x="-46" y="-36" width="92" height="72" rx="7" fill="#fffef8" stroke="#48503f" stroke-width="4" transform="rotate(-2)"/><g transform="rotate(-2)"><circle cx="21" cy="-12" r="8" fill="#8a7dff"/><path d="M-34 23 L-13 1 L3 15 L17 4 L35 23 Z" fill="#d4db8b"/></g></g><g transform="translate(420 123) scale(0.82)" ><rect x="-46" y="-36" width="92" height="72" rx="7" fill="#fffef8" stroke="#48503f" stroke-width="4" transform="rotate(2)"/><g transform="rotate(2)"><circle cx="21" cy="-12" r="8" fill="#8a7dff"/><path d="M-34 23 L-13 1 L3 15 L17 4 L35 23 Z" fill="#d4db8b"/></g></g><g transform="translate(260 128) scale(0.9)" ><path d="M-44 -18 H44 V38 H-44 Z" fill="#fffdf6" stroke="#3e4537" stroke-width="5"/><path d="M-24 8 H24" stroke="#c6cf64" stroke-width="8" stroke-linecap="round"/></g><g transform="translate(259 251) scale(0.84)" ><path d="M-62 -24 H62 V18 H-62 Z" fill="#3e4537"/><path d="M-22 18 H22 L38 58 H-38 Z" fill="#6d7662"/></g><g transform="translate(260 248) scale(0.55)" >
      <ellipse cx="0" cy="87" rx="72" ry="13" fill="#17201d" opacity=".16"/>
      <polygon points="-39,8 39,8 57,70 -57,70" fill="#606a54" />
      <polygon points="-39,8 0,24 -57,70" fill="#78806e" opacity=".8"/>
      <polygon points="39,8 0,24 57,70" fill="#535b48" opacity=".76"/>
      <path d="M-40 19 L-82 44 M40 18 L82 44" stroke="#6d7662" stroke-width="17" stroke-linecap="round"/>
      <circle cx="-86" cy="46" r="10" fill="#efd0b9"/><circle cx="86" cy="46" r="10" fill="#efd0b9"/>
      <g transform="translate(0 -64)">
        <polygon points="-53,-30 -14,-61 39,-55 63,-16 51,38 0,56 -48,33" fill="#efd0b9" />
        <polygon points="-53,-30 -14,-61 -8,0 -48,33" fill="#f1d5c0" opacity=".8"/>
        <polygon points="39,-55 63,-16 51,38 7,-1" fill="#d2b7a3" opacity=".62"/>
        <polygon points="-58,-19 -22,-60 32,-58 62,-17 51,20 -45,23" fill="#dcbfaa" opacity=".6"/>
        <path d="M-26 -14 L-7 -18 M7 -18 L27 -14" stroke="#2d2520" stroke-width="5" stroke-linecap="round"/>
        <circle cx="-18" cy="0" r="4.5" fill="#2d2520"/><circle cx="19" cy="0" r="4.5" fill="#2d2520"/>
        <polygon points="0,0 -8,14 8,13" fill="#dcbfaa" opacity=".75"/>
        <path d="M-18 23 Q0 9 18 23" fill="none" stroke="#854e4a" stroke-width="5" stroke-linecap="round"/>
      </g>
      <circle cx="-41" cy="9" r="5" fill="#c6cf64" opacity=".72"/><circle cx="40" cy="9" r="5" fill="#8a7dff" opacity=".72"/>
    </g>
  
    <g transform="translate(33 42)">
      <rect x="0" y="-20" width="205" height="36" rx="18" fill="#ffffff" opacity=".92"/>
      <text x="16" y="2" font-family="Arial, Helvetica, sans-serif" font-size="16" font-weight="900" fill="#26302c" >Taste-Bao-Jun</text>
    </g>
  
</svg>
