<?xml version="1.0" encoding="UTF-8"?>
<svg xmlns="http://www.w3.org/2000/svg" width="1040" height="720" viewBox="0 0 520 360" role="img" aria-labelledby="title desc">
  <title id="title">邪门广播</title>
  <desc id="desc">Low-poly sticker persona scene: 邪门广播.</desc>
  <rect width="520" height="360" rx="28" fill="#ffffff"/>
  <rect x="18" y="18" width="484" height="324" rx="24" fill="#e6f4ea" opacity=".32"/>
  <path d="M33 72 H492 M33 118 H492 M33 164 H492 M33 210 H492 M33 256 H492 M78 30 V332 M142 30 V332 M206 30 V332 M270 30 V332 M334 30 V332 M398 30 V332 M462 30 V332" stroke="#d5d4e0" stroke-width="1" opacity=".4"/>
  <circle cx="83" cy="78" r="58" fill="#fcdfe9" opacity=".22"/>
  <circle cx="435" cy="281" r="62" fill="#d5d4e0" opacity=".18"/>
  <rect x="18" y="18" width="484" height="324" rx="24" fill="#5f5a88" opacity=".22"/><path d="M260 75 L207 292 H313 Z" fill="#44406a"/><path d="M235 160 H285 M225 203 H296 M216 246 H306" stroke="#7b779d" stroke-width="8"/><circle cx="260" cy="78" r="25" fill="#61bd79"/><path d="M200 79 C147 95 117 132 105 181 M320 79 C373 95 403 132 415 181 M174 50 C109 70 62 119 44 188 M346 50 C411 70 458 119 476 188" fill="none" stroke="#f06e9a" stroke-width="7" stroke-linecap="round" opacity=".75"/><g transform="translate(94 248) scale(0.56)" ><rect x="-46" y="-36" width="92" height="72" rx="7" fill="#fffef8" stroke="#3d395f" stroke-width="4" transform="rotate(-11)"/><g transform="rotate(-11)"><circle cx="21" cy="-12" r="8" fill="#f06e9a"/><path d="M-34 23 L-13 1 L3 15 L17 4 L35 23 Z" fill="#89ce9b"/></g></g><g transform="translate(424 247) scale(0.56)" ><rect x="-46" y="-36" width="92" height="72" rx="7" fill="#fffef8" stroke="#3d395f" stroke-width="4" transform="rotate(11)"/><g transform="rotate(11)"><circle cx="21" cy="-12" r="8" fill="#f06e9a"/><path d="M-34 23 L-13 1 L3 15 L17 4 L35 23 Z" fill="#89ce9b"/></g></g>
  
    <g transform="translate(33 42)">
      <rect x="0" y="-20" width="205" height="36" rx="18" fill="#ffffff" opacity=".92"/>
      <text x="16" y="2" font-family="Arial, Helvetica, sans-serif" font-size="16" font-weight="900" fill="#26302c" >Xie-Men-FM</text>
    </g>
  
</svg>
