<?xml version="1.0" encoding="UTF-8"?>
<svg xmlns="http://www.w3.org/2000/svg" width="1040" height="720" viewBox="0 0 520 360" role="img" aria-labelledby="title desc">
  <title id="title">怪图核弹</title>
  <desc id="desc">Low-poly sticker persona scene: 怪图核弹.</desc>
  <rect width="520" height="360" rx="28" fill="#ffffff"/>
  <rect x="18" y="18" width="484" height="324" rx="24" fill="#fdf5e0" opacity=".32"/>
  <path d="M33 72 H492 M33 118 H492 M33 164 H492 M33 210 H492 M33 256 H492 M78 30 V332 M142 30 V332 M206 30 V332 M270 30 V332 M334 30 V332 M398 30 V332 M462 30 V332" stroke="#ead1d4" stroke-width="1" opacity=".4"/>
  <circle cx="83" cy="78" r="58" fill="#e2f5ff" opacity=".22"/>
  <circle cx="435" cy="281" r="62" fill="#ead1d4" opacity=".18"/>
  <rect x="18" y="18" width="484" height="324" rx="24" fill="#1d1a20" opacity=".94"/><g transform="translate(260 160) scale(1.8)" ><polygon points="0,-56 14,-19 52,-36 30,-4 58,17 22,17 14,56 -5,25 -39,43 -23,8 -58,-4 -22,-16" fill="#f1bf3f" transform="rotate(0)"/></g><g transform="translate(260 160) scale(1.15)" ><polygon points="0,-56 14,-19 52,-36 30,-4 58,17 22,17 14,56 -5,25 -39,43 -23,8 -58,-4 -22,-16" fill="#7bd1ff" transform="rotate(21)"/></g><path d="M224 247 C213 202 232 174 260 174 C289 174 308 202 296 247 Z" fill="#b25560"/><rect x="203" y="247" width="114" height="33" rx="16" fill="#bb6872"/><g transform="translate(95 100) scale(0.55)" ><rect x="-46" y="-36" width="92" height="72" rx="7" fill="#fffef8" stroke="#7e2f38" stroke-width="4" transform="rotate(-17)"/><g transform="rotate(-17)"><circle cx="21" cy="-12" r="8" fill="#7bd1ff"/><path d="M-34 23 L-13 1 L3 15 L17 4 L35 23 Z" fill="#f5cf6f"/></g></g><g transform="translate(423 98) scale(0.55)" ><rect x="-46" y="-36" width="92" height="72" rx="7" fill="#fffef8" stroke="#7e2f38" stroke-width="4" transform="rotate(17)"/><g transform="rotate(17)"><circle cx="21" cy="-12" r="8" fill="#7bd1ff"/><path d="M-34 23 L-13 1 L3 15 L17 4 L35 23 Z" fill="#f5cf6f"/></g></g><g transform="translate(106 260) scale(0.46)" ><path d="M-33 -45 H33 V45 L21 35 L10 45 L0 35 L-11 45 L-22 35 L-33 45 Z" fill="#fffdf4" stroke="#792d35" stroke-width="4" transform="rotate(15)"/><path d="M-15 -18 H18 M-15 0 H20 M-15 18 H9" stroke="#f1bf3f" stroke-width="5" stroke-linecap="round" transform="rotate(15)"/></g><g transform="translate(420 260) scale(0.43)" ><rect x="-34" y="-58" width="68" height="116" rx="13" fill="#762b34" transform="rotate(-9)"/><rect x="-25" y="-43" width="50" height="82" rx="7" fill="#fffdf7" transform="rotate(-9)"/><g transform="rotate(-9)"><path d="M-13 -18 H12 M-15 2 H17 M-12 22 H10" stroke="#f1bf3f" stroke-width="5" stroke-linecap="round"/><circle cx="15" cy="-28" r="7" fill="#7bd1ff"/></g></g>
  
    <g transform="translate(33 42)">
      <rect x="0" y="-20" width="205" height="36" rx="18" fill="#ffffff" opacity=".92"/>
      <text x="16" y="2" font-family="Arial, Helvetica, sans-serif" font-size="16" font-weight="900" fill="#26302c" >Guai-Pic-Boom</text>
    </g>
  
</svg>
