<?xml version="1.0" encoding="UTF-8"?>
<svg xmlns="http://www.w3.org/2000/svg" width="1040" height="720" viewBox="0 0 520 360" role="img" aria-labelledby="title desc">
  <title id="title">审美暴君</title>
  <desc id="desc">Distinct low-poly sticker persona scene for 审美暴君.</desc>
  <rect width="520" height="360" rx="28" fill="#ffffff"/>
  <rect x="18" y="18" width="484" height="324" rx="24" fill="#ebefdf" opacity=".2"/>
  <path d="M54 294 C136 333 386 335 466 292" fill="none" stroke="#e9eee6" stroke-width="18" stroke-linecap="round" opacity=".78"/>
  <g transform="translate(100 123) scale(0.78)"><rect x="-42" y="-33" width="84" height="66" rx="6" fill="#fff" stroke="#495140" stroke-width="4"/><circle cx="20" cy="-9" r="9" fill="#9aad61"/><path d="M-32 22 L-12 -2 L4 13 L18 1 L34 22 Z" fill="#bdca98"/></g><g transform="translate(407 124) scale(0.78)"><rect x="-42" y="-33" width="84" height="66" rx="6" fill="#fff" stroke="#495140" stroke-width="4"/><circle cx="20" cy="-9" r="9" fill="#9aad61"/><path d="M-32 22 L-12 -2 L4 13 L18 1 L34 22 Z" fill="#bdca98"/></g><rect x="205" y="275" width="110" height="18" rx="9" fill="#474e3e" opacity=".35"/>
  
    <g transform="translate(260 259) scale(1.12)">
      <ellipse cx="0" cy="92" rx="78" ry="14" fill="#17201d" opacity=".14"/>
      
        <polygon points="-28,50 -52,91 -32,91 -10,53" fill="#4b5342" />
        <polygon points="28,50 52,91 32,91 10,53" fill="#565e4b" />
        <rect x="-58" y="88" width="36" height="9" rx="4" fill="#1e2221"/>
        <rect x="23" y="88" width="36" height="9" rx="4" fill="#1e2221"/>
      
      
        <path d="M-38 8 L-60.5 9 L-83 10" fill="none" stroke="#727b66" stroke-width="18" stroke-linecap="round" stroke-linejoin="round"/>
        <circle cx="-60.5" cy="9" r="4" fill="#9aad61" opacity=".58"/>
        <circle cx="-83" cy="10" r="10" fill="#efd3bc"/>
        <circle cx="-83" cy="10" r="5" fill="#dcc2ad" opacity=".35"/>
      
        <path d="M38 8 L60.5 1 L83 -6" fill="none" stroke="#727b66" stroke-width="18" stroke-linecap="round" stroke-linejoin="round"/>
        <circle cx="60.5" cy="1" r="4" fill="#9aad61" opacity=".58"/>
        <circle cx="83" cy="-6" r="10" fill="#efd3bc"/>
        <circle cx="83" cy="-6" r="5" fill="#dcc2ad" opacity=".35"/>
      
      <polygon points="-47,-10 47,-10 63,62 -63,62" fill="#667059" />
      <polygon points="-47,-10 0,7 -63,62" fill="#7b8470" opacity=".78"/>
      <polygon points="47,-10 0,7 63,62" fill="#5a634e" opacity=".72"/>
      <polygon points="-17,-25 17,-25 15,-8 -15,-8" fill="#d8b298"/>
      <g transform="translate(0 -74) scale(1.42)">
        <polygon points="-54,-30 -17,-65 38,-58 66,-19 52,38 0,56 -50,34" fill="#efd3bc" />
        <polygon points="-54,-30 -17,-65 -7,-4 -50,34" fill="#f6dfcd" opacity=".76"/>
        <polygon points="-17,-65 38,-58 8,-2 -7,-4" fill="#f1d7c3" />
        <polygon points="38,-58 66,-19 52,38 8,-2" fill="#d8b298" opacity=".58"/>
        <polygon points="-50,34 -7,-4 0,56" fill="#e3c8b3" opacity=".62"/>
        <polygon points="8,-2 52,38 0,56" fill="#f0d5bf" opacity=".62"/>
        <polygon points="-58,-20 -17,-70 35,-65 64,-34 46,-16 -7,-35" fill="#24282b" />
        <polygon points="-17,-70 35,-65 51,-35 0,-44" fill="#505355" />
        <polygon points="46,-16 69,-8 64,-34 38,-25" fill="#1d2022" />
        <polygon points="-58,-20 -70,6 -50,0 -40,-39" fill="#1d2022" />
        
    <path d="M-28 -15 H-6 M6 -15 H29" stroke="#2d2520" stroke-width="5" stroke-linecap="round"/>
    <circle cx="-18" cy="-1" r="4" fill="#2d2520"/>
    <circle cx="19" cy="-1" r="4" fill="#2d2520"/>
    <polygon points="0,0 -8,14 8,13" fill="#dcc2ad" opacity=".75"/>
    <path d="M-18 17 H18" stroke="#854e4a" stroke-width="5" stroke-linecap="round"/>
    
  
      </g>
    </g>
  
  
    <g transform="translate(34 42)">
      <rect x="0" y="-20" width="184" height="36" rx="18" fill="#ffffff" opacity=".9"/>
      <text x="16" y="2" font-family="Arial, Helvetica, sans-serif" font-size="16" font-weight="800" fill="#26302c">Taste-Bao-Jun</text>
    </g>
  
</svg>
