<?xml version="1.0" encoding="UTF-8"?>
<svg xmlns="http://www.w3.org/2000/svg" width="1040" height="720" viewBox="0 0 520 360" role="img" aria-labelledby="title desc">
  <title id="title">造景戏霸</title>
  <desc id="desc">Low-poly sticker persona scene: 造景戏霸.</desc>
  <rect width="520" height="360" rx="28" fill="#ffffff"/>
  <rect x="18" y="18" width="484" height="324" rx="24" fill="#e7f5f1" opacity=".32"/>
  <path d="M33 72 H492 M33 118 H492 M33 164 H492 M33 210 H492 M33 256 H492 M78 30 V332 M142 30 V332 M206 30 V332 M270 30 V332 M334 30 V332 M398 30 V332 M462 30 V332" stroke="#ded6e3" stroke-width="1" opacity=".4"/>
  <circle cx="83" cy="78" r="58" fill="#fcefdb" opacity=".22"/>
  <circle cx="435" cy="281" r="62" fill="#ded6e3" opacity=".18"/>
  
    <path d="M54 294 C136 333 386 335 466 292" fill="none" stroke="#e9eee6" stroke-width="18" stroke-linecap="round" opacity=".78"/>
    <rect x="58" y="302" width="118" height="18" rx="11" fill="#bce4d8" stroke="#96b6ad" stroke-width="3" transform="rotate(-2 117 311)"/>
    <rect x="340" y="58" width="110" height="16" rx="11" fill="#b09cbb" stroke="#8d7d96" stroke-width="3" transform="rotate(1 395 66)"/>
  <path d="M71 270 H449" stroke="#b4a2bf" stroke-width="14" stroke-linecap="round"/><path d="M110 270 V188 H166 V270 M190 270 V138 H254 V270 M278 270 V172 H338 V270 M365 270 V204 H423 V270" fill="#947aa4"/><path d="M190 138 L221 111 L254 138" fill="#f0b45a"/><path d="M118 208 H158 M202 160 H242 M288 192 H328 M374 224 H414" stroke="#fff" stroke-width="5" opacity=".7"/><g transform="translate(369 130) scale(0.75)" ><path d="M-33 42 L-8 -35 L18 42 Z" fill="#66c2a6"/><circle cx="-4" cy="-44" r="23" fill="#82cdb6"/><path d="M-26 6 L-67 -20 M17 6 L61 -18" stroke="#66c2a6" stroke-width="12" stroke-linecap="round"/></g><g transform="translate(127 247) scale(0.45)" >
      <ellipse cx="0" cy="87" rx="72" ry="13" fill="#17201d" opacity=".16"/>
      <polygon points="-39,8 39,8 57,70 -57,70" fill="#76558a" />
      <polygon points="-39,8 0,24 -57,70" fill="#8b6f9c" opacity=".8"/>
      <polygon points="39,8 0,24 57,70" fill="#654977" opacity=".76"/>
      <path d="M-40 19 L-82 44 M40 18 L82 44" stroke="#816393" stroke-width="17" stroke-linecap="round"/>
      <circle cx="-86" cy="46" r="10" fill="#efd0b9"/><circle cx="86" cy="46" r="10" fill="#efd0b9"/>
      <g transform="translate(0 -64)">
        <polygon points="-53,-30 -14,-61 39,-55 63,-16 51,38 0,56 -48,33" fill="#efd0b9" />
        <polygon points="-53,-30 -14,-61 -8,0 -48,33" fill="#f1d5c0" opacity=".8"/>
        <polygon points="39,-55 63,-16 51,38 7,-1" fill="#d2b7a3" opacity=".62"/>
        <polygon points="-55,-30 -19,-64 38,-59 64,-22 50,-2 -8,-30" fill="#1f2428" /><polygon points="-31,-82 -16,-58 0,-82 14,-58 31,-82 25,-50 -26,-50" fill="#f0b45a" />
        <path d="M-26 -14 L-7 -18 M7 -18 L27 -14" stroke="#2d2520" stroke-width="5" stroke-linecap="round"/>
        <circle cx="-18" cy="0" r="4.5" fill="#2d2520"/><circle cx="19" cy="0" r="4.5" fill="#2d2520"/>
        <polygon points="0,0 -8,14 8,13" fill="#dcbfaa" opacity=".75"/>
        <path d="M-18 23 Q0 9 18 23" fill="none" stroke="#854e4a" stroke-width="5" stroke-linecap="round"/>
      </g>
      <circle cx="-41" cy="9" r="5" fill="#66c2a6" opacity=".72"/><circle cx="40" cy="9" r="5" fill="#f0b45a" opacity=".72"/>
    </g>
  
    <g transform="translate(33 42)">
      <rect x="0" y="-20" width="205" height="36" rx="18" fill="#ffffff" opacity=".92"/>
      <text x="16" y="2" font-family="Arial, Helvetica, sans-serif" font-size="16" font-weight="900" fill="#26302c" >Scene-Drama-Ba</text>
    </g>
  
</svg>
