<?xml version="1.0" encoding="UTF-8"?>
<svg xmlns="http://www.w3.org/2000/svg" width="1040" height="720" viewBox="0 0 520 360" role="img" aria-labelledby="title desc">
  <title id="title">怪味教主</title>
  <desc id="desc">Low-poly sticker persona scene: 怪味教主.</desc>
  <rect width="520" height="360" rx="28" fill="#ffffff"/>
  <rect x="18" y="18" width="484" height="324" rx="24" fill="#ecf8ef" opacity=".32"/>
  <path d="M33 72 H492 M33 118 H492 M33 164 H492 M33 210 H492 M33 256 H492 M78 30 V332 M142 30 V332 M206 30 V332 M270 30 V332 M334 30 V332 M398 30 V332 M462 30 V332" stroke="#d5dddb" stroke-width="1" opacity=".4"/>
  <circle cx="83" cy="78" r="58" fill="#f8f2dc" opacity=".22"/>
  <circle cx="435" cy="281" r="62" fill="#d5dddb" opacity=".18"/>
  <path d="M79 289 L260 78 L443 289 Z" fill="#769189"/><path d="M137 289 L260 145 L384 289 Z" fill="#fffdf7" opacity=".82"/><path d="M117 110 H403" stroke="#334a44" stroke-width="13" stroke-linecap="round"/><path d="M168 247 H352" stroke="#88d39e" stroke-width="10" stroke-linecap="round"/><g transform="translate(260 89) scale(0.52)" ><polygon points="0,-56 14,-19 52,-36 30,-4 58,17 22,17 14,56 -5,25 -39,43 -23,8 -58,-4 -22,-16" fill="#dfc35e" transform="rotate(0)"/></g><g transform="translate(158 267) scale(0.42)" >
      <ellipse cx="0" cy="87" rx="72" ry="13" fill="#17201d" opacity=".16"/>
      <polygon points="-39,8 39,8 57,70 -57,70" fill="#4f7268" />
      <polygon points="-39,8 0,24 -57,70" fill="#69877f" opacity=".8"/>
      <polygon points="39,8 0,24 57,70" fill="#446259" opacity=".76"/>
      <path d="M-40 19 L-82 44 M40 18 L82 44" stroke="#5d7d74" stroke-width="17" stroke-linecap="round"/>
      <circle cx="-86" cy="46" r="10" fill="#efd0b9"/><circle cx="86" cy="46" r="10" fill="#efd0b9"/>
      <g transform="translate(0 -64)">
        <polygon points="-53,-30 -14,-61 39,-55 63,-16 51,38 0,56 -48,33" fill="#efd0b9" />
        <polygon points="-53,-30 -14,-61 -8,0 -48,33" fill="#f1d5c0" opacity=".8"/>
        <polygon points="39,-55 63,-16 51,38 7,-1" fill="#d2b7a3" opacity=".62"/>
        <polygon points="-65,-20 -34,-73 30,-73 67,-18 54,46 -54,44" fill="#3b564e" />
        <path d="M-26 -14 L-7 -18 M7 -18 L27 -14" stroke="#2d2520" stroke-width="5" stroke-linecap="round"/>
        <circle cx="-18" cy="0" r="4.5" fill="#2d2520"/><circle cx="19" cy="0" r="4.5" fill="#2d2520"/>
        <polygon points="0,0 -8,14 8,13" fill="#dcbfaa" opacity=".75"/>
        <path d="M-18 23 Q0 9 18 23" fill="none" stroke="#854e4a" stroke-width="5" stroke-linecap="round"/>
      </g>
      <circle cx="-41" cy="9" r="5" fill="#88d39e" opacity=".72"/><circle cx="40" cy="9" r="5" fill="#dfc35e" opacity=".72"/>
    </g><g transform="translate(362 267) scale(0.42)" >
      <ellipse cx="0" cy="87" rx="72" ry="13" fill="#17201d" opacity=".16"/>
      <polygon points="-39,8 39,8 57,70 -57,70" fill="#4f7268" />
      <polygon points="-39,8 0,24 -57,70" fill="#69877f" opacity=".8"/>
      <polygon points="39,8 0,24 57,70" fill="#446259" opacity=".76"/>
      <path d="M-40 19 L-82 44 M40 18 L82 44" stroke="#5d7d74" stroke-width="17" stroke-linecap="round"/>
      <circle cx="-86" cy="46" r="10" fill="#efd0b9"/><circle cx="86" cy="46" r="10" fill="#efd0b9"/>
      <g transform="translate(0 -64)">
        <polygon points="-53,-30 -14,-61 39,-55 63,-16 51,38 0,56 -48,33" fill="#efd0b9" />
        <polygon points="-53,-30 -14,-61 -8,0 -48,33" fill="#f1d5c0" opacity=".8"/>
        <polygon points="39,-55 63,-16 51,38 7,-1" fill="#d2b7a3" opacity=".62"/>
        <polygon points="-56,-28 -20,-72 32,-67 68,-34 57,-7 -9,-37" fill="#1e2227" /><polygon points="-20,-72 33,-67 65,-34 1,-43" fill="#53565a" />
        <path d="M-26 -14 L-7 -18 M7 -18 L27 -14" stroke="#2d2520" stroke-width="5" stroke-linecap="round"/>
        <circle cx="-18" cy="0" r="4.5" fill="#2d2520"/><circle cx="19" cy="0" r="4.5" fill="#2d2520"/>
        <polygon points="0,0 -8,14 8,13" fill="#dcbfaa" opacity=".75"/>
        <path d="M-18 23 Q0 9 18 23" fill="none" stroke="#854e4a" stroke-width="5" stroke-linecap="round"/>
      </g>
      <circle cx="-41" cy="9" r="5" fill="#88d39e" opacity=".72"/><circle cx="40" cy="9" r="5" fill="#dfc35e" opacity=".72"/>
    </g><g transform="translate(260 236) scale(0.55)" ><path d="M-33 -45 H33 V45 L21 35 L10 45 L0 35 L-11 45 L-22 35 L-33 45 Z" fill="#fffdf4" stroke="#39524b" stroke-width="4" transform="rotate(0)"/><path d="M-15 -18 H18 M-15 0 H20 M-15 18 H9" stroke="#88d39e" stroke-width="5" stroke-linecap="round" transform="rotate(0)"/></g>
  
    <g transform="translate(33 42)">
      <rect x="0" y="-20" width="205" height="36" rx="18" fill="#ffffff" opacity=".92"/>
      <text x="16" y="2" font-family="Arial, Helvetica, sans-serif" font-size="16" font-weight="900" fill="#26302c" >Guai-Flavor-Joe</text>
    </g>
  
</svg>
