<?xml version="1.0" encoding="UTF-8"?>
<svg xmlns="http://www.w3.org/2000/svg" width="1040" height="720" viewBox="0 0 520 360" role="img" aria-labelledby="title desc">
  <title id="title">气氛保姆</title>
  <desc id="desc">Distinct low-poly sticker persona scene for 气氛保姆.</desc>
  <rect width="520" height="360" rx="28" fill="#ffffff"/>
  <rect x="18" y="18" width="484" height="324" rx="24" fill="#f9e9ee" opacity=".2"/>
  <path d="M54 294 C136 333 386 335 466 292" fill="none" stroke="#e9eee6" stroke-width="18" stroke-linecap="round" opacity=".78"/>
  <g transform="translate(105 122) scale(0.7)"><path d="M0 34 C-38 7 -36 -24 -12 -24 C-4 -24 0 -17 0 -17 C0 -17 4 -24 12 -24 C36 -24 38 7 0 34 Z" fill="#df91a8"/></g><g transform="translate(405 119) scale(0.62)"><ellipse cx="-18" cy="9" rx="27" ry="17" fill="#efc8d4"/><ellipse cx="9" cy="1" rx="31" ry="22" fill="#ebbbc9"/><ellipse cx="34" cy="11" rx="21" ry="14" fill="#edc3cf"/><path d="M-18 37 L-25 54 M8 36 L1 55 M32 36 L24 53" stroke="#df91a8" stroke-width="5" stroke-linecap="round"/></g><g transform="translate(112 258) scale(0.52)"><path d="M-42 -24 C-14 -55 15 15 43 -22" fill="none" stroke="#df91a8" stroke-width="7" stroke-linecap="round"/><circle cx="-42" cy="-24" r="8" fill="#df91a8"/><circle cx="43" cy="-22" r="8" fill="#df91a8"/></g>
  
    <g transform="translate(260 260) scale(1.18)">
      <ellipse cx="0" cy="92" rx="78" ry="14" fill="#17201d" opacity=".14"/>
      
      
        <path d="M-38 8 L-57 11 L-76 14" fill="none" stroke="#7e9d8b" stroke-width="18" stroke-linecap="round" stroke-linejoin="round"/>
        <circle cx="-57" cy="11" r="4" fill="#df91a8" opacity=".58"/>
        <circle cx="-76" cy="14" r="10" fill="#efd3bc"/>
        <circle cx="-76" cy="14" r="5" fill="#dcc2ad" opacity=".35"/>
      
        <path d="M38 8 L57 11 L76 14" fill="none" stroke="#7e9d8b" stroke-width="18" stroke-linecap="round" stroke-linejoin="round"/>
        <circle cx="57" cy="11" r="4" fill="#df91a8" opacity=".58"/>
        <circle cx="76" cy="14" r="10" fill="#efd3bc"/>
        <circle cx="76" cy="14" r="5" fill="#dcc2ad" opacity=".35"/>
      
      <polygon points="-47,-10 47,-10 63,62 -63,62" fill="#739581" />
      <polygon points="-47,-10 0,7 -63,62" fill="#87a493" opacity=".78"/>
      <polygon points="47,-10 0,7 63,62" fill="#658372" opacity=".72"/>
      <polygon points="-17,-25 17,-25 15,-8 -15,-8" fill="#d8b298"/>
      <g transform="translate(0 -74) scale(1.2)">
        <polygon points="-54,-30 -17,-65 38,-58 66,-19 52,38 0,56 -50,34" fill="#efd3bc" />
        <polygon points="-54,-30 -17,-65 -7,-4 -50,34" fill="#f6dfcd" opacity=".76"/>
        <polygon points="-17,-65 38,-58 8,-2 -7,-4" fill="#f1d7c3" />
        <polygon points="38,-58 66,-19 52,38 8,-2" fill="#d8b298" opacity=".58"/>
        <polygon points="-50,34 -7,-4 0,56" fill="#e3c8b3" opacity=".62"/>
        <polygon points="8,-2 52,38 0,56" fill="#f0d5bf" opacity=".62"/>
        <polygon points="-58,-20 -17,-70 35,-65 64,-34 46,-16 -7,-35" fill="#24282b" />
        <polygon points="-17,-70 35,-65 51,-35 0,-44" fill="#505355" />
        <polygon points="46,-16 69,-8 64,-34 38,-25" fill="#1d2022" />
        <polygon points="-58,-20 -70,6 -50,0 -40,-39" fill="#1d2022" />
        
    <path d="M-26 -15 H-8 M8 -15 H26" stroke="#2d2520" stroke-width="4" stroke-linecap="round"/>
    <circle cx="-18" cy="-1" r="4" fill="#2d2520"/>
    <circle cx="19" cy="-1" r="4" fill="#2d2520"/>
    <polygon points="0,0 -8,14 8,13" fill="#dcc2ad" opacity=".75"/>
    <path d="M-16 16 Q0 20 16 16" fill="none" stroke="#854e4a" stroke-width="4" stroke-linecap="round"/>
    
  
      </g>
    </g>
  
  
    <g transform="translate(34 42)">
      <rect x="0" y="-20" width="184" height="36" rx="18" fill="#ffffff" opacity=".9"/>
      <text x="16" y="2" font-family="Arial, Helvetica, sans-serif" font-size="16" font-weight="800" fill="#26302c">Vibe-Bao-Mu</text>
    </g>
  
</svg>
