<?xml version="1.0" encoding="UTF-8"?>
<svg xmlns="http://www.w3.org/2000/svg" width="1040" height="720" viewBox="0 0 520 360" role="img" aria-labelledby="title desc">
  <title id="title">独角戏精</title>
  <desc id="desc">Low-poly sticker persona scene: 独角戏精.</desc>
  <rect width="520" height="360" rx="28" fill="#ffffff"/>
  <rect x="18" y="18" width="484" height="324" rx="24" fill="#fbf2e6" opacity=".32"/>
  <path d="M33 72 H492 M33 118 H492 M33 164 H492 M33 210 H492 M33 256 H492 M78 30 V332 M142 30 V332 M206 30 V332 M270 30 V332 M334 30 V332 M398 30 V332 M462 30 V332" stroke="#dcd6e0" stroke-width="1" opacity=".4"/>
  <circle cx="83" cy="78" r="58" fill="#fae2eb" opacity=".22"/>
  <circle cx="435" cy="281" r="62" fill="#dcd6e0" opacity=".18"/>
  <rect x="18" y="18" width="484" height="324" rx="24" fill="#241927" opacity=".94"/><path d="M70 300 C143 253 377 253 450 300" fill="#8f7e9e"/><path d="M184 112 C211 75 250 92 260 128 C247 213 216 252 174 232 C152 182 155 142 184 112 Z" fill="#fff4db"/><path d="M336 112 C309 75 270 92 260 128 C273 213 304 252 346 232 C368 182 365 142 336 112 Z" fill="#efaac3"/><path d="M190 154 Q207 143 224 156 M296 156 Q313 143 330 154" stroke="#463753" stroke-width="7" stroke-linecap="round"/><path d="M204 207 Q233 230 260 207 M316 207 Q287 230 260 207" fill="none" stroke="#e9ad63" stroke-width="7" stroke-linecap="round"/><g transform="translate(260 275) scale(0.42)" >
      <ellipse cx="0" cy="87" rx="72" ry="13" fill="#17201d" opacity=".16"/>
      <polygon points="-39,8 39,8 57,70 -57,70" fill="#6c557f" />
      <polygon points="-39,8 0,24 -57,70" fill="#826f92" opacity=".8"/>
      <polygon points="39,8 0,24 57,70" fill="#5d496d" opacity=".76"/>
      <path d="M-40 19 L-82 44 M40 18 L82 44" stroke="#786389" stroke-width="17" stroke-linecap="round"/>
      <circle cx="-86" cy="46" r="10" fill="#efd0b9"/><circle cx="86" cy="46" r="10" fill="#efd0b9"/>
      <g transform="translate(0 -64)">
        <polygon points="-53,-30 -14,-61 39,-55 63,-16 51,38 0,56 -48,33" fill="#efd0b9" />
        <polygon points="-53,-30 -14,-61 -8,0 -48,33" fill="#f1d5c0" opacity=".8"/>
        <polygon points="39,-55 63,-16 51,38 7,-1" fill="#d2b7a3" opacity=".62"/>
        <polygon points="-60,-25 -39,-72 -12,-45 11,-75 31,-43 63,-34 45,-6 -11,-30" fill="#1f2428" />
        <path d="M-26 -14 L-7 -18 M7 -18 L27 -14" stroke="#2d2520" stroke-width="5" stroke-linecap="round"/>
        <circle cx="-18" cy="0" r="4.5" fill="#2d2520"/><circle cx="19" cy="0" r="4.5" fill="#2d2520"/>
        <polygon points="0,0 -8,14 8,13" fill="#dcbfaa" opacity=".75"/>
        <path d="M-18 23 Q0 9 18 23" fill="none" stroke="#854e4a" stroke-width="5" stroke-linecap="round"/>
      </g>
      <circle cx="-41" cy="9" r="5" fill="#e9ad63" opacity=".72"/><circle cx="40" cy="9" r="5" fill="#e67aa2" opacity=".72"/>
    </g>
  
    <g transform="translate(33 42)">
      <rect x="0" y="-20" width="205" height="36" rx="18" fill="#ffffff" opacity=".92"/>
      <text x="16" y="2" font-family="Arial, Helvetica, sans-serif" font-size="16" font-weight="900" fill="#26302c" >Solo-Drama-Jing</text>
    </g>
  
</svg>
