<?xml version="1.0" encoding="UTF-8"?>
<svg xmlns="http://www.w3.org/2000/svg" width="1040" height="720" viewBox="0 0 520 360" role="img" aria-labelledby="title desc">
  <title id="title">情绪天气台</title>
  <desc id="desc">Distinct low-poly sticker persona scene for 情绪天气台.</desc>
  <rect width="520" height="360" rx="28" fill="#ffffff"/>
  <rect x="18" y="18" width="484" height="324" rx="24" fill="#fbf1db" opacity=".2"/>
  <path d="M54 294 C136 333 386 335 466 292" fill="none" stroke="#e9eee6" stroke-width="18" stroke-linecap="round" opacity=".78"/>
  <g transform="translate(105 121) scale(0.76)"><ellipse cx="-18" cy="9" rx="27" ry="17" fill="#f4dca6"/><ellipse cx="9" cy="1" rx="31" ry="22" fill="#f1d391"/><ellipse cx="34" cy="11" rx="21" ry="14" fill="#f3d89d"/><path d="M-18 37 L-25 54 M8 36 L1 55 M32 36 L24 53" stroke="#e9b84d" stroke-width="5" stroke-linecap="round"/></g><g transform="translate(410 104) scale(0.54)"><polygon points="0,-42 10,-12 42,-12 16,7 25,39 0,20 -25,39 -16,7 -42,-12 -10,-12" fill="#e9b84d" /></g><rect x="352" y="211" width="118" height="66" rx="16" fill="#fff" stroke="#475f6d" stroke-width="4"/><path d="M372 249 H444" stroke="#e9b84d" stroke-width="7" stroke-linecap="round"/>
  
    <g transform="translate(250 247) scale(0.94)">
      <ellipse cx="0" cy="92" rx="78" ry="14" fill="#17201d" opacity=".14"/>
      
        <polygon points="-28,50 -52,91 -32,91 -10,53" fill="#4b6473" />
        <polygon points="28,50 52,91 32,91 10,53" fill="#567182" />
        <rect x="-58" y="88" width="36" height="9" rx="4" fill="#1e2221"/>
        <rect x="23" y="88" width="36" height="9" rx="4" fill="#1e2221"/>
      
      
        <path d="M-38 8 L-62 -11 L-86 -30" fill="none" stroke="#7291a3" stroke-width="18" stroke-linecap="round" stroke-linejoin="round"/>
        <circle cx="-62" cy="-11" r="4" fill="#e9b84d" opacity=".58"/>
        <circle cx="-86" cy="-30" r="10" fill="#efd3bc"/>
        <circle cx="-86" cy="-30" r="5" fill="#dcc2ad" opacity=".35"/>
      
        <path d="M38 8 L62 -11 L86 -30" fill="none" stroke="#7291a3" stroke-width="18" stroke-linecap="round" stroke-linejoin="round"/>
        <circle cx="62" cy="-11" r="4" fill="#e9b84d" opacity=".58"/>
        <circle cx="86" cy="-30" r="10" fill="#efd3bc"/>
        <circle cx="86" cy="-30" r="5" fill="#dcc2ad" opacity=".35"/>
      
      <polygon points="-47,-10 47,-10 63,62 -63,62" fill="#66879b" />
      <polygon points="-47,-10 0,7 -63,62" fill="#7b98a9" opacity=".78"/>
      <polygon points="47,-10 0,7 63,62" fill="#5a7788" opacity=".72"/>
      <polygon points="-17,-25 17,-25 15,-8 -15,-8" fill="#d8b298"/>
      <g transform="translate(0 -74) scale(1.15)">
        <polygon points="-54,-30 -17,-65 38,-58 66,-19 52,38 0,56 -50,34" fill="#efd3bc" />
        <polygon points="-54,-30 -17,-65 -7,-4 -50,34" fill="#f6dfcd" opacity=".76"/>
        <polygon points="-17,-65 38,-58 8,-2 -7,-4" fill="#f1d7c3" />
        <polygon points="38,-58 66,-19 52,38 8,-2" fill="#d8b298" opacity=".58"/>
        <polygon points="-50,34 -7,-4 0,56" fill="#e3c8b3" opacity=".62"/>
        <polygon points="8,-2 52,38 0,56" fill="#f0d5bf" opacity=".62"/>
        <polygon points="-58,-20 -17,-70 35,-65 64,-34 46,-16 -7,-35" fill="#24282b" />
        <polygon points="-17,-70 35,-65 51,-35 0,-44" fill="#505355" />
        <polygon points="46,-16 69,-8 64,-34 38,-25" fill="#1d2022" />
        <polygon points="-58,-20 -70,6 -50,0 -40,-39" fill="#1d2022" />
        
    <path d="M-28 -15 H-6 M6 -15 H29" stroke="#2d2520" stroke-width="5" stroke-linecap="round"/>
    <circle cx="-18" cy="-1" r="4" fill="#2d2520"/>
    <circle cx="19" cy="-1" r="4" fill="#2d2520"/>
    <polygon points="0,0 -8,14 8,13" fill="#dcc2ad" opacity=".75"/>
    <path d="M-18 17 H18" stroke="#854e4a" stroke-width="5" stroke-linecap="round"/>
    
  
      </g>
    </g>
  
  
    <g transform="translate(34 42)">
      <rect x="0" y="-20" width="184" height="36" rx="18" fill="#ffffff" opacity=".9"/>
      <text x="16" y="2" font-family="Arial, Helvetica, sans-serif" font-size="16" font-weight="800" fill="#26302c">Mood-Weather-TV</text>
    </g>
  
</svg>
