<?xml version="1.0" encoding="UTF-8"?>
<svg xmlns="http://www.w3.org/2000/svg" width="1040" height="720" viewBox="0 0 520 360" role="img" aria-labelledby="title desc">
  <title id="title">情绪天气台</title>
  <desc id="desc">Low-poly sticker persona scene: 情绪天气台.</desc>
  <rect width="520" height="360" rx="28" fill="#ffffff"/>
  <rect x="18" y="18" width="484" height="324" rx="24" fill="#fcf4e3" opacity=".32"/>
  <path d="M33 72 H492 M33 118 H492 M33 164 H492 M33 210 H492 M33 256 H492 M78 30 V332 M142 30 V332 M206 30 V332 M270 30 V332 M334 30 V332 M398 30 V332 M462 30 V332" stroke="#d9e1e6" stroke-width="1" opacity=".4"/>
  <circle cx="83" cy="78" r="58" fill="#e3f3ff" opacity=".22"/>
  <circle cx="435" cy="281" r="62" fill="#d9e1e6" opacity=".18"/>
  
    <path d="M54 294 C136 333 386 335 466 292" fill="none" stroke="#e9eee6" stroke-width="18" stroke-linecap="round" opacity=".78"/>
    <rect x="58" y="302" width="118" height="18" rx="11" fill="#f7e2b3" stroke="#c6b58f" stroke-width="3" transform="rotate(-2 117 311)"/>
    <rect x="340" y="58" width="110" height="16" rx="11" fill="#a2b6c3" stroke="#82929c" stroke-width="3" transform="rotate(1 395 66)"/>
  <rect x="102" y="86" width="316" height="170" rx="24" fill="#fffdf7" stroke="#3e5462" stroke-width="6"/><path d="M132 143 H388 M132 197 H388 M260 91 V251" stroke="#b7c6d0" stroke-width="5"/><ellipse cx="196" cy="144" rx="43" ry="25" fill="#b5c5cf"/><circle cx="333" cy="144" r="34" fill="#80c8ff"/><path d="M190 186 L175 224 M215 186 L201 229" stroke="#edbd52" stroke-width="7" stroke-linecap="round"/><path d="M317 197 H361" stroke="#edbd52" stroke-width="8" stroke-linecap="round"/><g transform="translate(260 279) scale(0.62)" ><path d="M-32 0 H32 L47 50 H-47 Z" fill="#5f8197"/></g>
  
    <g transform="translate(33 42)">
      <rect x="0" y="-20" width="205" height="36" rx="18" fill="#ffffff" opacity=".92"/>
      <text x="16" y="2" font-family="Arial, Helvetica, sans-serif" font-size="16" font-weight="900" fill="#26302c" >Mood-Weather-TV</text>
    </g>
  
</svg>
