<?xml version="1.0" encoding="UTF-8"?>
<svg xmlns="http://www.w3.org/2000/svg" width="1040" height="720" viewBox="0 0 520 360" role="img" aria-labelledby="title desc">
  <title id="title">独角戏精</title>
  <desc id="desc">Distinct low-poly sticker persona scene for 独角戏精.</desc>
  <rect width="520" height="360" rx="28" fill="#ffffff"/>
  <rect x="18" y="18" width="484" height="324" rx="24" fill="#fbefe0" opacity=".2"/>
  <path d="M54 294 C136 333 386 335 466 292" fill="none" stroke="#e9eee6" stroke-width="18" stroke-linecap="round" opacity=".78"/>
  <polygon points="96,72 198,72 255,342 36,342" fill="#f5dab9" opacity=".58"/><polygon points="324,72 426,72 484,342 265,342" fill="#f5dab9" opacity=".45"/><rect x="95" y="64" width="104" height="16" rx="6" fill="#4c3c59"/><rect x="323" y="64" width="104" height="16" rx="6" fill="#4c3c59"/>
  
    <g transform="translate(260 246) scale(1.06)">
      <ellipse cx="0" cy="92" rx="78" ry="14" fill="#17201d" opacity=".14"/>
      
        <polygon points="-28,50 -52,91 -32,91 -10,53" fill="#503f5e" />
        <polygon points="28,50 52,91 32,91 10,53" fill="#5b476b" />
        <rect x="-58" y="88" width="36" height="9" rx="4" fill="#1e2221"/>
        <rect x="23" y="88" width="36" height="9" rx="4" fill="#1e2221"/>
      
      
        <path d="M-38 8 L-56.5 -25 L-75 -58" fill="none" stroke="#786389" stroke-width="18" stroke-linecap="round" stroke-linejoin="round"/>
        <circle cx="-56.5" cy="-25" r="4" fill="#e9ad63" opacity=".58"/>
        <circle cx="-75" cy="-58" r="10" fill="#efd3bc"/>
        <circle cx="-75" cy="-58" r="5" fill="#dcc2ad" opacity=".35"/>
      
        <path d="M38 8 L56.5 -25 L75 -58" fill="none" stroke="#786389" stroke-width="18" stroke-linecap="round" stroke-linejoin="round"/>
        <circle cx="56.5" cy="-25" r="4" fill="#e9ad63" opacity=".58"/>
        <circle cx="75" cy="-58" r="10" fill="#efd3bc"/>
        <circle cx="75" cy="-58" r="5" fill="#dcc2ad" opacity=".35"/>
      
      <polygon points="-47,-10 47,-10 63,62 -63,62" fill="#6c557f" />
      <polygon points="-47,-10 0,7 -63,62" fill="#816d91" opacity=".78"/>
      <polygon points="47,-10 0,7 63,62" fill="#5f4b70" opacity=".72"/>
      <polygon points="-17,-25 17,-25 15,-8 -15,-8" fill="#d8b298"/>
      <g transform="translate(0 -74) scale(1.18)">
        <polygon points="-54,-30 -17,-65 38,-58 66,-19 52,38 0,56 -50,34" fill="#efd3bc" />
        <polygon points="-54,-30 -17,-65 -7,-4 -50,34" fill="#f6dfcd" opacity=".76"/>
        <polygon points="-17,-65 38,-58 8,-2 -7,-4" fill="#f1d7c3" />
        <polygon points="38,-58 66,-19 52,38 8,-2" fill="#d8b298" opacity=".58"/>
        <polygon points="-50,34 -7,-4 0,56" fill="#e3c8b3" opacity=".62"/>
        <polygon points="8,-2 52,38 0,56" fill="#f0d5bf" opacity=".62"/>
        <polygon points="-58,-20 -17,-70 35,-65 64,-34 46,-16 -7,-35" fill="#24282b" />
        <polygon points="-17,-70 35,-65 51,-35 0,-44" fill="#505355" />
        <polygon points="46,-16 69,-8 64,-34 38,-25" fill="#1d2022" />
        <polygon points="-58,-20 -70,6 -50,0 -40,-39" fill="#1d2022" />
        
    <path d="M-28 -10 L-8 -20 M8 -20 L28 -10" stroke="#2d2520" stroke-width="5" stroke-linecap="round"/>
    <circle cx="-18" cy="-1" r="4" fill="#2d2520"/>
    <circle cx="19" cy="-1" r="4" fill="#2d2520"/>
    <polygon points="0,0 -8,14 8,13" fill="#dcc2ad" opacity=".75"/>
    <path d="M-18 24 Q0 7 18 24" fill="none" stroke="#854e4a" stroke-width="5" stroke-linecap="round"/>
    <path d="M31 1 C41 14 39 27 28 29 C20 24 23 11 31 1 Z" fill="#f2cea1"/>
  
      </g>
    </g>
  
  
    <g transform="translate(34 42)">
      <rect x="0" y="-20" width="184" height="36" rx="18" fill="#ffffff" opacity=".9"/>
      <text x="16" y="2" font-family="Arial, Helvetica, sans-serif" font-size="16" font-weight="800" fill="#26302c">Solo-Drama-Jing</text>
    </g>
  
</svg>
