<?xml version="1.0" encoding="UTF-8"?>
<svg xmlns="http://www.w3.org/2000/svg" width="1040" height="720" viewBox="0 0 520 360" role="img" aria-labelledby="title desc">
  <title id="title">深夜废稿</title>
  <desc id="desc">Low-poly sticker persona scene: 深夜废稿.</desc>
  <rect width="520" height="360" rx="28" fill="#ffffff"/>
  <rect x="18" y="18" width="484" height="324" rx="24" fill="#eff3f9" opacity=".32"/>
  <path d="M33 72 H492 M33 118 H492 M33 164 H492 M33 210 H492 M33 256 H492 M78 30 V332 M142 30 V332 M206 30 V332 M270 30 V332 M334 30 V332 M398 30 V332 M462 30 V332" stroke="#d3d7e0" stroke-width="1" opacity=".4"/>
  <circle cx="83" cy="78" r="58" fill="#fcf4e2" opacity=".22"/>
  <circle cx="435" cy="281" r="62" fill="#d3d7e0" opacity=".18"/>
  <rect x="18" y="18" width="484" height="324" rx="24" fill="#111827" opacity=".94"/><circle cx="399" cy="90" r="45" fill="#f1cf79"/><circle cx="421" cy="78" r="43" fill="#111827"/><path d="M46 263 C110 233 151 289 220 263 C294 234 338 286 474 252 L474 342 H46 Z" fill="#5c6e8c" opacity=".74"/><g transform="translate(139 166) scale(0.6)" ><path d="M-33 -45 H33 V45 L21 35 L10 45 L0 35 L-11 45 L-22 35 L-33 45 Z" fill="#fffdf4" stroke="#324159" stroke-width="4" transform="rotate(-12)"/><path d="M-15 -18 H18 M-15 0 H20 M-15 18 H9" stroke="#9bb4dc" stroke-width="5" stroke-linecap="round" transform="rotate(-12)"/></g><g transform="translate(309 219) scale(0.55)" ><path d="M-33 -45 H33 V45 L21 35 L10 45 L0 35 L-11 45 L-22 35 L-33 45 Z" fill="#fffdf4" stroke="#324159" stroke-width="4" transform="rotate(9)"/><path d="M-15 -18 H18 M-15 0 H20 M-15 18 H9" stroke="#9bb4dc" stroke-width="5" stroke-linecap="round" transform="rotate(9)"/></g><g transform="translate(252 247) scale(0.62)" >
      <ellipse cx="0" cy="87" rx="72" ry="13" fill="#17201d" opacity=".16"/>
      <polygon points="-39,8 39,8 57,70 -57,70" fill="#465a7c" />
      <polygon points="-39,8 0,24 -57,70" fill="#627390" opacity=".8"/>
      <polygon points="39,8 0,24 57,70" fill="#3c4d6b" opacity=".76"/>
      <path d="M-40 19 L-82 44 M40 18 L82 44" stroke="#556786" stroke-width="17" stroke-linecap="round"/>
      <circle cx="-86" cy="46" r="10" fill="#efd0b9"/><circle cx="86" cy="46" r="10" fill="#efd0b9"/>
      <g transform="translate(0 -64)">
        <polygon points="-53,-30 -14,-61 39,-55 63,-16 51,38 0,56 -48,33" fill="#efd0b9" />
        <polygon points="-53,-30 -14,-61 -8,0 -48,33" fill="#f1d5c0" opacity=".8"/>
        <polygon points="39,-55 63,-16 51,38 7,-1" fill="#d2b7a3" opacity=".62"/>
        <polygon points="-58,-19 -22,-60 32,-58 62,-17 51,20 -45,23" fill="#dcbfaa" opacity=".6"/>
        <path d="M-26 -14 L-7 -18 M7 -18 L27 -14" stroke="#2d2520" stroke-width="5" stroke-linecap="round"/>
        <circle cx="-18" cy="0" r="4.5" fill="#2d2520"/><circle cx="19" cy="0" r="4.5" fill="#2d2520"/>
        <polygon points="0,0 -8,14 8,13" fill="#dcbfaa" opacity=".75"/>
        <path d="M-18 23 Q0 9 18 23" fill="none" stroke="#854e4a" stroke-width="5" stroke-linecap="round"/>
      </g>
      <circle cx="-41" cy="9" r="5" fill="#9bb4dc" opacity=".72"/><circle cx="40" cy="9" r="5" fill="#f1cf79" opacity=".72"/>
    </g>
  
    <g transform="translate(33 42)">
      <rect x="0" y="-20" width="205" height="36" rx="18" fill="#ffffff" opacity=".92"/>
      <text x="16" y="2" font-family="Arial, Helvetica, sans-serif" font-size="16" font-weight="900" fill="#26302c" >Midnight-Fay-Gao</text>
    </g>
  
</svg>
