<?xml version="1.0" encoding="UTF-8"?>
<svg xmlns="http://www.w3.org/2000/svg" width="1040" height="720" viewBox="0 0 520 360" role="img" aria-labelledby="title desc">
  <title id="title">ç ´éک²ه–‡هڈ­</title>
  <desc id="desc">Low-poly sticker persona scene: ç ´éک²ه–‡هڈ­.</desc>
  <rect width="520" height="360" rx="28" fill="#ffffff"/>
  <rect x="18" y="18" width="484" height="324" rx="24" fill="#fae6ea" opacity=".32"/>
  <path d="M33 72 H492 M33 118 H492 M33 164 H492 M33 210 H492 M33 256 H492 M78 30 V332 M142 30 V332 M206 30 V332 M270 30 V332 M334 30 V332 M398 30 V332 M462 30 V332" stroke="#d8dde7" stroke-width="1" opacity=".4"/>
  <circle cx="83" cy="78" r="58" fill="#fff5dc" opacity=".22"/>
  <circle cx="435" cy="281" r="62" fill="#d8dde7" opacity=".18"/>
  
    <path d="M54 294 C136 333 386 335 466 292" fill="none" stroke="#e9eee6" stroke-width="18" stroke-linecap="round" opacity=".78"/>
    <rect x="58" y="302" width="118" height="18" rx="11" fill="#f1b9c5" stroke="#c1949e" stroke-width="3" transform="rotate(-2 117 311)"/>
    <rect x="340" y="58" width="110" height="16" rx="11" fill="#a1adc6" stroke="#818a9e" stroke-width="3" transform="rotate(1 395 66)"/>
  <g transform="translate(145 168) scale(1.15)" ><polygon points="-64,-12 9,-42 9,42 -64,12" fill="#df617c" /><rect x="-86" y="-19" width="26" height="38" rx="8" fill="#3c4965"/><path d="M27 -37 Q85 -17 92 0 Q85 17 27 37" fill="none" stroke="#ffd15f" stroke-width="8" stroke-linecap="round"/></g><ellipse cx="399" cy="130" rx="71" ry="37" fill="#b8c1d3"/><ellipse cx="356" cy="120" rx="41" ry="30" fill="#c5ccdb"/><path d="M369 177 L350 220 M410 178 L392 230 M443 174 L424 214" stroke="#df617c" stroke-width="7" stroke-linecap="round"/><g transform="translate(407 252) scale(0.46)" ><polygon points="0,-56 14,-19 52,-36 30,-4 58,17 22,17 14,56 -5,25 -39,43 -23,8 -58,-4 -22,-16" fill="#ffd15f" transform="rotate(0)"/></g>
  
    <g transform="translate(33 42)">
      <rect x="0" y="-20" width="205" height="36" rx="18" fill="#ffffff" opacity=".92"/>
      <text x="16" y="2" font-family="Arial, Helvetica, sans-serif" font-size="16" font-weight="900" fill="#26302c" >Po-Fang-Laba</text>
    </g>
  
</svg>
