<?xml version="1.0" encoding="UTF-8"?>
<svg xmlns="http://www.w3.org/2000/svg" width="1040" height="720" viewBox="0 0 520 360" role="img" aria-labelledby="title desc">
  <title id="title">朋友圈戏命</title>
  <desc id="desc">Low-poly sticker persona scene: 朋友圈戏命.</desc>
  <rect width="520" height="360" rx="28" fill="#ffffff"/>
  <rect x="18" y="18" width="484" height="324" rx="24" fill="#fceceb" opacity=".32"/>
  <path d="M33 72 H492 M33 118 H492 M33 164 H492 M33 210 H492 M33 256 H492 M78 30 V332 M142 30 V332 M206 30 V332 M270 30 V332 M334 30 V332 M398 30 V332 M462 30 V332" stroke="#e1d9e3" stroke-width="1" opacity=".4"/>
  <circle cx="83" cy="78" r="58" fill="#e2f3ff" opacity=".22"/>
  <circle cx="435" cy="281" r="62" fill="#e1d9e3" opacity=".18"/>
  <rect x="18" y="18" width="484" height="324" rx="24" fill="#182139"/><path d="M91 292 C154 240 241 249 300 206 C346 171 381 119 450 82" fill="none" stroke="#96d3ff" stroke-width="12" stroke-linecap="round" opacity=".75"/><g transform="translate(111 187) scale(0.82)" ><rect x="-34" y="-58" width="68" height="116" rx="13" fill="#5a4361" transform="rotate(-9)"/><rect x="-25" y="-43" width="50" height="82" rx="7" fill="#fffdf7" transform="rotate(-9)"/><g transform="rotate(-9)"><path d="M-13 -18 H12 M-15 2 H17 M-12 22 H10" stroke="#ee8b7f" stroke-width="5" stroke-linecap="round"/><circle cx="15" cy="-28" r="7" fill="#7cc8ff"/></g></g><g transform="translate(329 152) scale(1)" ><path d="M-52 24 C-24 -64 59 -72 70 7 C35 16 18 34 6 69 C-18 46 -32 34 -52 24 Z" fill="#ee8b7f"/><circle cx="14" cy="-12" r="18" fill="#fff"/><path d="M-58 32 L-103 57 M-31 47 L-62 89" stroke="#7cc8ff" stroke-width="9" stroke-linecap="round"/></g><circle cx="419" cy="101" r="11" fill="#fff6c7" /><circle cx="249" cy="73" r="6" fill="#fff6c7" /><g transform="translate(405 238) scale(0.54)" ><path d="M0 34 C-38 7 -36 -24 -12 -24 C-4 -24 0 -17 0 -17 C0 -17 4 -24 12 -24 C36 -24 38 7 0 34 Z" fill="#7cc8ff"/></g>
  
    <g transform="translate(33 42)">
      <rect x="0" y="-20" width="205" height="36" rx="18" fill="#ffffff" opacity=".92"/>
      <text x="16" y="2" font-family="Arial, Helvetica, sans-serif" font-size="16" font-weight="900" fill="#26302c" >Friend-Zone-Show</text>
    </g>
  
</svg>
