<?xml version="1.0" encoding="UTF-8"?>
<svg xmlns="http://www.w3.org/2000/svg" width="1040" height="720" viewBox="0 0 520 360" role="img" aria-labelledby="title desc">
  <title id="title">情绪勒索</title>
  <desc id="desc">Low-poly sticker persona scene: 情绪勒索.</desc>
  <rect width="520" height="360" rx="28" fill="#ffffff"/>
  <rect x="18" y="18" width="484" height="324" rx="24" fill="#faeaef" opacity=".32"/>
  <path d="M33 72 H492 M33 118 H492 M33 164 H492 M33 210 H492 M33 256 H492 M78 30 V332 M142 30 V332 M206 30 V332 M270 30 V332 M334 30 V332 M398 30 V332 M462 30 V332" stroke="#dbd9e3" stroke-width="1" opacity=".4"/>
  <circle cx="83" cy="78" r="58" fill="#fcf1de" opacity=".22"/>
  <circle cx="435" cy="281" r="62" fill="#dbd9e3" opacity=".18"/>
  
    <path d="M54 294 C136 333 386 335 466 292" fill="none" stroke="#e9eee6" stroke-width="18" stroke-linecap="round" opacity=".78"/>
    <rect x="58" y="302" width="118" height="18" rx="11" fill="#f1c5d3" stroke="#c19ea9" stroke-width="3" transform="rotate(-2 117 311)"/>
    <rect x="340" y="58" width="110" height="16" rx="11" fill="#a8a3bc" stroke="#868296" stroke-width="3" transform="rotate(1 395 66)"/>
  <path d="M260 246 C167 184 174 96 226 96 C247 96 260 117 260 117 C260 117 273 96 294 96 C346 96 353 184 260 246 Z" fill="#df7c9c" opacity=".9"/><path d="M170 47 C211 87 217 120 224 158 M350 47 C309 87 303 120 296 158 M260 38 V118" fill="none" stroke="#443f5a" stroke-width="6" stroke-linecap="round"/><circle cx="170" cy="47" r="8" fill="#f3c06a"/><circle cx="350" cy="47" r="8" fill="#f3c06a"/><g transform="translate(103 254) scale(0.45)" >
      <ellipse cx="0" cy="87" rx="72" ry="13" fill="#17201d" opacity=".16"/>
      <polygon points="-39,8 39,8 57,70 -57,70" fill="#69618b" />
      <polygon points="-39,8 0,24 -57,70" fill="#80799c" opacity=".8"/>
      <polygon points="39,8 0,24 57,70" fill="#5a5378" opacity=".76"/>
      <path d="M-40 19 L-82 44 M40 18 L82 44" stroke="#756e94" stroke-width="17" stroke-linecap="round"/>
      <circle cx="-86" cy="46" r="10" fill="#efd0b9"/><circle cx="86" cy="46" r="10" fill="#efd0b9"/>
      <g transform="translate(0 -64)">
        <polygon points="-53,-30 -14,-61 39,-55 63,-16 51,38 0,56 -48,33" fill="#efd0b9" />
        <polygon points="-53,-30 -14,-61 -8,0 -48,33" fill="#f1d5c0" opacity=".8"/>
        <polygon points="39,-55 63,-16 51,38 7,-1" fill="#d2b7a3" opacity=".62"/>
        <polygon points="-54,-33 -22,-70 36,-62 63,-28 48,-4 -6,-28" fill="#202529" /><polygon points="-21,-70 37,-62 52,-30 -2,-39" fill="#42464a" />
        <path d="M-26 -14 L-7 -18 M7 -18 L27 -14" stroke="#2d2520" stroke-width="5" stroke-linecap="round"/>
        <circle cx="-18" cy="0" r="4.5" fill="#2d2520"/><circle cx="19" cy="0" r="4.5" fill="#2d2520"/>
        <polygon points="0,0 -8,14 8,13" fill="#dcbfaa" opacity=".75"/>
        <path d="M-18 23 Q0 9 18 23" fill="none" stroke="#854e4a" stroke-width="5" stroke-linecap="round"/>
      </g>
      <circle cx="-41" cy="9" r="5" fill="#df7c9c" opacity=".72"/><circle cx="40" cy="9" r="5" fill="#f3c06a" opacity=".72"/>
    </g><g transform="translate(420 254) scale(0.45)" >
      <ellipse cx="0" cy="87" rx="72" ry="13" fill="#17201d" opacity=".16"/>
      <polygon points="-39,8 39,8 57,70 -57,70" fill="#69618b" />
      <polygon points="-39,8 0,24 -57,70" fill="#80799c" opacity=".8"/>
      <polygon points="39,8 0,24 57,70" fill="#5a5378" opacity=".76"/>
      <path d="M-40 19 L-82 44 M40 18 L82 44" stroke="#756e94" stroke-width="17" stroke-linecap="round"/>
      <circle cx="-86" cy="46" r="10" fill="#efd0b9"/><circle cx="86" cy="46" r="10" fill="#efd0b9"/>
      <g transform="translate(0 -64)">
        <polygon points="-53,-30 -14,-61 39,-55 63,-16 51,38 0,56 -48,33" fill="#efd0b9" />
        <polygon points="-53,-30 -14,-61 -8,0 -48,33" fill="#f1d5c0" opacity=".8"/>
        <polygon points="39,-55 63,-16 51,38 7,-1" fill="#d2b7a3" opacity=".62"/>
        <polygon points="-56,-28 -20,-72 32,-67 68,-34 57,-7 -9,-37" fill="#1e2227" /><polygon points="-20,-72 33,-67 65,-34 1,-43" fill="#53565a" />
        <path d="M-26 -14 L-7 -18 M7 -18 L27 -14" stroke="#2d2520" stroke-width="5" stroke-linecap="round"/>
        <circle cx="-18" cy="0" r="4.5" fill="#2d2520"/><circle cx="19" cy="0" r="4.5" fill="#2d2520"/>
        <polygon points="0,0 -8,14 8,13" fill="#dcbfaa" opacity=".75"/>
        <path d="M-18 23 Q0 9 18 23" fill="none" stroke="#854e4a" stroke-width="5" stroke-linecap="round"/>
      </g>
      <circle cx="-41" cy="9" r="5" fill="#df7c9c" opacity=".72"/><circle cx="40" cy="9" r="5" fill="#f3c06a" opacity=".72"/>
    </g>
  
    <g transform="translate(33 42)">
      <rect x="0" y="-20" width="205" height="36" rx="18" fill="#ffffff" opacity=".92"/>
      <text x="16" y="2" font-family="Arial, Helvetica, sans-serif" font-size="16" font-weight="900" fill="#26302c" >Feel-Le-Suo</text>
    </g>
  
</svg>
