<?xml version="1.0" encoding="UTF-8"?>
<svg xmlns="http://www.w3.org/2000/svg" width="1040" height="720" viewBox="0 0 520 360" role="img" aria-labelledby="title desc">
  <title id="title">体面废墟</title>
  <desc id="desc">Low-poly sticker persona scene: 体面废墟.</desc>
  <rect width="520" height="360" rx="28" fill="#ffffff"/>
  <rect x="18" y="18" width="484" height="324" rx="24" fill="#eff7f5" opacity=".32"/>
  <path d="M33 72 H492 M33 118 H492 M33 164 H492 M33 210 H492 M33 256 H492 M78 30 V332 M142 30 V332 M206 30 V332 M270 30 V332 M334 30 V332 M398 30 V332 M462 30 V332" stroke="#dadde4" stroke-width="1" opacity=".4"/>
  <circle cx="83" cy="78" r="58" fill="#faf4e4" opacity=".22"/>
  <circle cx="435" cy="281" r="62" fill="#dadde4" opacity=".18"/>
  <rect x="18" y="18" width="484" height="324" rx="24" fill="#fbfaf5"/><path d="M80 282 L126 210 H171 L206 282 Z M323 282 L365 200 H417 L458 282 Z" fill="#a9b1bf"/><path d="M110 194 H188 M348 184 H434" stroke="#424b5c" stroke-width="12" stroke-linecap="round"/><path d="M221 119 H299 V282 H221 Z" fill="#d3eae4"/><path d="M232 144 H288 M232 178 H288 M232 212 H288" stroke="#fff" stroke-width="7" stroke-linecap="round"/><ellipse cx="260" cy="295" rx="180" ry="18" fill="#ced2db"/><g transform="translate(100 125) scale(0.48)" ><path d="M-33 -45 H33 V45 L21 35 L10 45 L0 35 L-11 45 L-22 35 L-33 45 Z" fill="#fffdf4" stroke="#495366" stroke-width="4" transform="rotate(-10)"/><path d="M-15 -18 H18 M-15 0 H20 M-15 18 H9" stroke="#9ed0c2" stroke-width="5" stroke-linecap="round" transform="rotate(-10)"/></g><g transform="translate(425 128) scale(0.44)" ><polygon points="-34,-12 0,-30 36,-12 0,8" fill="#8c96aa" /><polygon points="-34,-12 0,8 0,45 -34,25" fill="#65738d" /><polygon points="36,-12 0,8 0,45 36,25" fill="#4d576b" /><path d="M0 8 V45" stroke="#424b5c" stroke-width="3" opacity=".35"/><circle cx="-12" cy="-5" r="4" fill="#e8cf86" opacity=".7"/></g>
  
    <g transform="translate(33 42)">
      <rect x="0" y="-20" width="205" height="36" rx="18" fill="#ffffff" opacity=".92"/>
      <text x="16" y="2" font-family="Arial, Helvetica, sans-serif" font-size="16" font-weight="900" fill="#26302c" >Face-Ruin</text>
    </g>
  
</svg>
