<?xml version="1.0" encoding="UTF-8"?>
<svg xmlns="http://www.w3.org/2000/svg" width="1040" height="720" viewBox="0 0 520 360" role="img" aria-labelledby="title desc">
  <title id="title">藏品改造人</title>
  <desc id="desc">Hide-Pin-Change sticker persona illustration</desc>
  <defs>
    <linearGradient id="bg-cangpin-gaizaoren" x1="0" y1="0" x2="1" y2="1">
      <stop offset="0%" stop-color="#dfe9d8"/>
      <stop offset="52%" stop-color="#fffef7"/>
      <stop offset="100%" stop-color="#fcebde"/>
    </linearGradient>
    <filter id="shadow-cangpin-gaizaoren" x="-20%" y="-20%" width="140%" height="140%">
      <feDropShadow dx="0" dy="18" stdDeviation="18" flood-color="#111111" flood-opacity=".15"/>
    </filter>
  </defs>
  <rect width="520" height="360" rx="32" fill="url(#bg-cangpin-gaizaoren)"/>
  <path d="M34 74 H486 M34 122 H486 M34 170 H486 M34 218 H486 M34 266 H486 M82 32 V328 M146 32 V328 M210 32 V328 M274 32 V328 M338 32 V328 M402 32 V328 M466 32 V328" stroke="#b9bcc7" stroke-width="1" opacity=".32"/>
  <g filter="url(#shadow-cangpin-gaizaoren)">
    
        <rect x="112" y="74" width="300" height="214" rx="26" fill="#282e44" />
        <circle cx="262" cy="181" r="74" fill="#5c627c" stroke="#fffdf2" stroke-width="8"/>
        <circle cx="262" cy="181" r="36" fill="#fffdf2" stroke="#8bb174" stroke-width="8"/>
        <path d="M262 107 V255 M188 181 H336" stroke="#282e44" stroke-width="6"/>
        <rect x="70" y="260" width="106" height="24" rx="10" fill="#f7c59f" stroke="#cba282" stroke-width="3" transform="rotate(-5 123 272)"/>
        <rect x="357" y="64" width="106" height="24" rx="10" fill="#cedec5" stroke="#a9b6a2" stroke-width="3" transform="rotate(5 410 76)"/>
        
    <g transform="translate(263 239) scale(0.48)">
      <ellipse cx="0" cy="98" rx="78" ry="15" fill="#16201d" opacity=".14"/>
      <polygon points="-45,20 45,20 62,84 -62,84" fill="#38405f" />
      <polygon points="-45,20 0,39 -62,84" fill="#5c627c" opacity=".78"/>
      <polygon points="45,20 0,39 62,84" fill="#2f3650" opacity=".78"/>
      <path d="M-42 31 L-82 52 M42 31 L82 52" stroke="#424a67" stroke-width="16" stroke-linecap="round"/>
      <g transform="translate(0 -48)">
        <polygon points="-54,-26 -15,-59 39,-52 63,-15 51,42 0,62 -49,39" fill="#efd0b8" />
        <polygon points="-54,-26 -15,-59 -6,0 -49,39" fill="#f5dcca" opacity=".75"/>
        <polygon points="39,-52 63,-15 51,42 8,-2" fill="#dcb49b" opacity=".5"/>
        <polygon points="-66,-16 -34,-67 31,-67 66,-16 54,50 -54,50" fill="#2b3148" />
        <path d="M-27 -8 L-8 -14 M8 -14 L28 -8" stroke="#2b2520" stroke-width="5" stroke-linecap="round"/>
        <circle cx="-18" cy="6" r="4.5" fill="#2b2520" />
        <circle cx="19" cy="6" r="4.5" fill="#2b2520" />
        <path d="M-20 27 Q0 36 21 27" fill="none" stroke="#854e4a" stroke-width="5" stroke-linecap="round"/>
      </g>
    </g>
  
      
  </g>
  
    <g transform="translate(32 36)">
      <rect x="0" y="0" width="208" height="40" rx="20" fill="#ffffff" opacity=".92"/>
      <text x="18" y="26" font-family="Arial, Helvetica, sans-serif" font-size="17" font-weight="900" fill="#22302b">Hide-Pin-Change</text>
    </g>
  
  
    <g transform="translate(32 300)">
      <rect x="0" y="-32" width="236" height="48" rx="16" fill="#ffffff" opacity=".9"/>
      <text x="18" y="-1" font-family="Arial, Helvetica, sans-serif" font-size="26" font-weight="900" fill="#1e2522">藏品改造人</text>
    </g>
  
</svg>
