<?xml version="1.0" encoding="UTF-8"?>
<svg xmlns="http://www.w3.org/2000/svg" width="1040" height="720" viewBox="0 0 520 360" role="img" aria-labelledby="title desc">
  <title id="title">宇宙戏癫</title>
  <desc id="desc">Distinct low-poly sticker persona scene for 宇宙戏癫.</desc>
  <rect width="520" height="360" rx="28" fill="#ffffff"/>
  <rect x="18" y="18" width="484" height="324" rx="24" fill="#fbf5dd" opacity=".2"/>
  <path d="M54 294 C136 333 386 335 466 292" fill="none" stroke="#e9eee6" stroke-width="18" stroke-linecap="round" opacity=".78"/>
  <rect x="18" y="18" width="484" height="324" rx="24" fill="#161320" opacity=".95"/><circle cx="112" cy="104" r="5" fill="#fff6c7"/><circle cx="429" cy="84" r="7" fill="#fff6c7"/><circle cx="381" cy="250" r="4" fill="#fff6c7"/><g transform="translate(102 253) scale(0.68)"><polygon points="0,-54 13,-20 49,-35 29,-4 56,17 21,17 14,54 -5,24 -36,42 -22,8 -56,-4 -20,-15" fill="#ebcf56" /></g><g transform="translate(407 128) scale(0.64)"><polygon points="0,-42 10,-12 42,-12 16,7 25,39 0,20 -25,39 -16,7 -42,-12 -10,-12" fill="#ebcf56" /></g>
  
    <g transform="translate(260 251) scale(1.12)">
      <ellipse cx="0" cy="92" rx="78" ry="14" fill="#17201d" opacity=".14"/>
      
        <polygon points="-28,50 -52,91 -32,91 -10,53" fill="#753050" />
        <polygon points="28,50 52,91 32,91 10,53" fill="#85375b" />
        <rect x="-58" y="88" width="36" height="9" rx="4" fill="#1e2221"/>
        <rect x="23" y="88" width="36" height="9" rx="4" fill="#1e2221"/>
      
      
        <path d="M-38 8 L-63 -19 L-88 -46" fill="none" stroke="#a65078" stroke-width="18" stroke-linecap="round" stroke-linejoin="round"/>
        <circle cx="-63" cy="-19" r="4" fill="#ebcf56" opacity=".58"/>
        <circle cx="-88" cy="-46" r="10" fill="#efd3bc"/>
        <circle cx="-88" cy="-46" r="5" fill="#dcc2ad" opacity=".35"/>
      
        <path d="M38 8 L63 -19 L88 -46" fill="none" stroke="#a65078" stroke-width="18" stroke-linecap="round" stroke-linejoin="round"/>
        <circle cx="63" cy="-19" r="4" fill="#ebcf56" opacity=".58"/>
        <circle cx="88" cy="-46" r="10" fill="#efd3bc"/>
        <circle cx="88" cy="-46" r="5" fill="#dcc2ad" opacity=".35"/>
      
      <polygon points="-47,-10 47,-10 63,62 -63,62" fill="#9e416c" />
      <polygon points="-47,-10 0,7 -63,62" fill="#ac5c81" opacity=".78"/>
      <polygon points="47,-10 0,7 63,62" fill="#8b395f" opacity=".72"/>
      <polygon points="-17,-25 17,-25 15,-8 -15,-8" fill="#d8b298"/>
      <g transform="translate(0 -74) scale(1.5)">
        <polygon points="-54,-30 -17,-65 38,-58 66,-19 52,38 0,56 -50,34" fill="#efd3bc" />
        <polygon points="-54,-30 -17,-65 -7,-4 -50,34" fill="#f6dfcd" opacity=".76"/>
        <polygon points="-17,-65 38,-58 8,-2 -7,-4" fill="#f1d7c3" />
        <polygon points="38,-58 66,-19 52,38 8,-2" fill="#d8b298" opacity=".58"/>
        <polygon points="-50,34 -7,-4 0,56" fill="#e3c8b3" opacity=".62"/>
        <polygon points="8,-2 52,38 0,56" fill="#f0d5bf" opacity=".62"/>
        <polygon points="-58,-20 -17,-70 35,-65 64,-34 46,-16 -7,-35" fill="#24282b" />
        <polygon points="-17,-70 35,-65 51,-35 0,-44" fill="#505355" />
        <polygon points="46,-16 69,-8 64,-34 38,-25" fill="#1d2022" />
        <polygon points="-58,-20 -70,6 -50,0 -40,-39" fill="#1d2022" />
        
    <path d="M-29 -24 L-8 -12 M8 -12 L29 -24" stroke="#2d2520" stroke-width="5" stroke-linecap="round"/>
    <circle cx="-18" cy="-1" r="6" fill="#2d2520"/>
    <circle cx="19" cy="-1" r="6" fill="#2d2520"/>
    <polygon points="0,0 -8,14 8,13" fill="#dcc2ad" opacity=".75"/>
    <path d="M-18 24 Q0 5 19 24" fill="none" stroke="#854e4a" stroke-width="5" stroke-linecap="round"/>
    <path d="M31 1 C41 14 39 27 28 29 C20 24 23 11 31 1 Z" fill="#f3e29a"/>
  
      </g>
    </g>
  
  
    <g transform="translate(34 42)">
      <rect x="0" y="-20" width="184" height="36" rx="18" fill="#ffffff" opacity=".9"/>
      <text x="16" y="2" font-family="Arial, Helvetica, sans-serif" font-size="16" font-weight="800" fill="#26302c">Cosmo-Drama-Dian</text>
    </g>
  
</svg>
