<?xml version="1.0" encoding="UTF-8"?>
<svg xmlns="http://www.w3.org/2000/svg" width="1040" height="720" viewBox="0 0 520 360" role="img" aria-labelledby="title desc">
  <title id="title">爽贴快嘴侠</title>
  <desc id="desc">So-Tie-Quick-Mouth sticker persona illustration</desc>
  <defs>
    <linearGradient id="bg-shuangtie-kuaizuixia" x1="0" y1="0" x2="1" y2="1">
      <stop offset="0%" stop-color="#fff2d4"/>
      <stop offset="52%" stop-color="#fffef7"/>
      <stop offset="100%" stop-color="#c3eeeb"/>
    </linearGradient>
    <filter id="shadow-shuangtie-kuaizuixia" x="-20%" y="-20%" width="140%" height="140%">
      <feDropShadow dx="0" dy="18" stdDeviation="18" flood-color="#111111" flood-opacity=".15"/>
    </filter>
  </defs>
  <rect width="520" height="360" rx="32" fill="url(#bg-shuangtie-kuaizuixia)"/>
  <path d="M34 74 H486 M34 122 H486 M34 170 H486 M34 218 H486 M34 266 H486 M82 32 V328 M146 32 V328 M210 32 V328 M274 32 V328 M338 32 V328 M402 32 V328 M466 32 V328" stroke="#f0c1c1" stroke-width="1" opacity=".32"/>
  <g filter="url(#shadow-shuangtie-kuaizuixia)">
    
        <polygon points="90,72 146,74 117,143 175,144 86,263 112,171 58,171" fill="#ffd166" />
        
    <g transform="rotate(6 286 77)">
      <rect x="286" y="77" width="116" height="48" rx="18" fill="#ffecbf" stroke="#c7b895" stroke-width="4"/>
      <polygon points="314,121 331,149 344,121" fill="#ffecbf" />
      <text x="304" y="108" font-family="Arial, Helvetica, sans-serif" font-size="18" font-weight="900" fill="#233">快评</text>
    </g>
  
        <rect x="343" y="201" width="83" height="90" rx="14" fill="#983939" />
        <rect x="334" y="186" width="102" height="20" fill="#4ecdc4" rx="8"/>
        <path d="M360 222 H408 M363 248 H405" stroke="#ffecbf" stroke-width="8" stroke-linecap="round"/>
        
    <g transform="translate(220 242) scale(0.58)">
      <ellipse cx="0" cy="98" rx="78" ry="15" fill="#16201d" opacity=".14"/>
      <polygon points="-45,20 45,20 62,84 -62,84" fill="#d34f4f" />
      <polygon points="-45,20 0,39 -62,84" fill="#db6f6f" opacity=".78"/>
      <polygon points="45,20 0,39 62,84" fill="#b14242" opacity=".78"/>
      <path d="M-42 31 L-82 52 M42 31 L82 52" stroke="#d55858" stroke-width="16" stroke-linecap="round"/>
      <g transform="translate(0 -48)">
        <polygon points="-54,-26 -15,-59 39,-52 63,-15 51,42 0,62 -49,39" fill="#efd0b8" />
        <polygon points="-54,-26 -15,-59 -6,0 -49,39" fill="#f5dcca" opacity=".75"/>
        <polygon points="39,-52 63,-15 51,42 8,-2" fill="#dcb49b" opacity=".5"/>
        <polygon points="-61,-17 -41,-61 -14,-36 8,-65 31,-34 63,-22 45,5 -6,-22" fill="#24292e" />
        <path d="M-27 -8 L-8 -14 M8 -14 L28 -8" stroke="#2b2520" stroke-width="5" stroke-linecap="round"/>
        <circle cx="-18" cy="6" r="4.5" fill="#2b2520" />
        <circle cx="19" cy="6" r="4.5" fill="#2b2520" />
        <path d="M-22 31 Q0 16 22 31" fill="none" stroke="#854e4a" stroke-width="5" stroke-linecap="round"/>
      </g>
    </g>
  
      
  </g>
  
    <g transform="translate(32 36)">
      <rect x="0" y="0" width="208" height="40" rx="20" fill="#ffffff" opacity=".92"/>
      <text x="18" y="26" font-family="Arial, Helvetica, sans-serif" font-size="17" font-weight="900" fill="#22302b">So-Tie-Quick-Mouth</text>
    </g>
  
  
    <g transform="translate(32 300)">
      <rect x="0" y="-32" width="236" height="48" rx="16" fill="#ffffff" opacity=".9"/>
      <text x="18" y="-1" font-family="Arial, Helvetica, sans-serif" font-size="26" font-weight="900" fill="#1e2522">爽贴快嘴侠</text>
    </g>
  
</svg>
