<?xml version="1.0" encoding="UTF-8"?>
<svg xmlns="http://www.w3.org/2000/svg" width="1040" height="720" viewBox="0 0 520 360" role="img" aria-labelledby="title desc">
  <title id="title">随性浪子</title>
  <desc id="desc">Sway-Sing-Run sticker persona illustration</desc>
  <defs>
    <linearGradient id="bg-suixing-langzi" x1="0" y1="0" x2="1" y2="1">
      <stop offset="0%" stop-color="#e0edd6"/>
      <stop offset="52%" stop-color="#fffef7"/>
      <stop offset="100%" stop-color="#fdecc3"/>
    </linearGradient>
    <filter id="shadow-suixing-langzi" x="-20%" y="-20%" width="140%" height="140%">
      <feDropShadow dx="0" dy="18" stdDeviation="18" flood-color="#111111" flood-opacity=".15"/>
    </filter>
  </defs>
  <rect width="520" height="360" rx="32" fill="url(#bg-suixing-langzi)"/>
  <path d="M34 74 H486 M34 122 H486 M34 170 H486 M34 218 H486 M34 266 H486 M82 32 V328 M146 32 V328 M210 32 V328 M274 32 V328 M338 32 V328 M402 32 V328 M466 32 V328" stroke="#c1d8d7" stroke-width="1" opacity=".32"/>
  <g filter="url(#shadow-suixing-langzi)">
    
        <path d="M38 276 C141 209 199 318 311 235 C371 190 420 162 480 147" fill="none" stroke="#90be6d" stroke-width="20" stroke-linecap="round" opacity=".7"/>
        <path d="M92 119 C162 88 217 110 268 83 M251 145 C333 115 391 143 453 113" fill="none" stroke="#376866" stroke-width="9" stroke-linecap="round" opacity=".5"/>
        <polygon points="310,123 365,151 314,184 337,153" fill="#f9c74f" />
        <rect x="98" y="236" width="86" height="48" rx="18" fill="#fffdf4" stroke="#376866" stroke-width="5"/>
        <rect x="226" y="248" width="124" height="24" rx="10" fill="#d0e4c2" stroke="#abbb9f" stroke-width="3" transform="rotate(2 288 260)"/>
      
  </g>
  
    <g transform="translate(32 36)">
      <rect x="0" y="0" width="208" height="40" rx="20" fill="#ffffff" opacity=".92"/>
      <text x="18" y="26" font-family="Arial, Helvetica, sans-serif" font-size="17" font-weight="900" fill="#22302b">Sway-Sing-Run</text>
    </g>
  
  
    <g transform="translate(32 300)">
      <rect x="0" y="-32" width="236" height="48" rx="16" fill="#ffffff" opacity=".9"/>
      <text x="18" y="-1" font-family="Arial, Helvetica, sans-serif" font-size="26" font-weight="900" fill="#1e2522">随性浪子</text>
    </g>
  
</svg>
